<svg width="74" height="74" viewBox="0 0 74 74" fill="none" xmlns="http://www.w3.org/2000/svg">
<path d="M29.6932 73.2768C23.2565 71.9439 17.2503 68.9706 12.5352 64.7829C0.430247 54.032 -3.31083 37.143 3.08393 22.1155C4.65432 18.4252 7.20735 14.68 10.3706 11.4263L13.1594 8.5578L13.3561 25.3471C13.5444 41.4175 13.5868 42.227 14.347 44.2521C15.8678 48.3035 17.4982 50.8829 20.3049 53.6782C27.5552 60.8986 38.1899 62.7007 47.2304 58.2406C55.7278 54.0484 61.0848 44.933 60.4623 35.7255C60.0441 29.5408 57.9642 25.0056 53.4736 20.4869C50.0781 17.0701 46.0831 14.8383 41.7337 13.9283C37.3085 13.0024 37.5208 12.8671 37.5208 16.6127V19.8464L39.9468 20.2934C49.3422 22.0246 55.556 31.2505 53.5976 40.5615C52.9722 43.5352 51.5771 46.1612 49.3375 48.5802C45.9341 52.2563 41.1458 54.0134 36.9648 54.0053C30.0515 53.992 24.2787 50.0634 21.4808 44.254C21.4808 44.254 20.7479 42.5934 20.5123 41.5673C19.1272 35.5328 20.0126 22.8297 20.0126 22.8297L19.9053 4.25561L21.0018 3.68859C21.6049 3.37673 22.1833 3.12157 22.2871 3.12157C22.3909 3.12157 22.5228 11.6526 22.58 22.0795C22.58 22.0795 21.2485 35.7477 22.894 40.9855C23.1314 41.7413 23.5821 43.0338 23.5821 43.0338C25.0246 45.9726 27.3364 48.5575 30.3402 49.9804C32.6204 51.0605 33.7684 51.5492 37.1419 51.5492C39.3459 51.5492 41.2985 50.8535 43.5452 49.8202C46.1937 48.6021 49.2319 45.3725 50.3547 42.4238C53.448 34.2997 49.1408 25.5591 40.8429 23.1218C37.4517 22.1258 37.5208 22.0709 37.5208 25.7585V28.9795L39.1487 29.4149C45.0164 30.9843 46.8068 38.8491 42.2005 42.8903C40.573 44.3181 39.1066 44.9493 36.5412 44.9493C33.8001 44.9493 31.1689 43.2902 29.8162 40.7454C29.0036 39.2168 28.935 37.7668 28.935 37.1027C28.935 30.9685 28.8022 19.9363 28.8022 19.9363L28.6924 1.01209L29.5348 0.802857C29.9982 0.687776 31.8708 0.403026 33.6963 0.170073C39.8873 -0.619973 49.0466 1.40609 55.1999 4.92676C63.589 9.72665 69.9367 17.9722 72.5797 27.5027C73.4888 30.7809 73.5901 31.7341 73.5901 37.0077C73.5901 42.2577 73.4865 43.2425 72.5966 46.4491C69.002 59.4022 59.858 68.6619 46.7833 72.589C44.0316 73.4155 42.7426 73.5731 37.8871 73.6767C33.9688 73.7603 31.4292 73.6363 29.6932 73.2768Z" fill="#C60C30"/>
</svg>
