<svg width="126" height="60" viewBox="0 0 126 60" fill="none" xmlns="http://www.w3.org/2000/svg">
<path fill-rule="evenodd" clip-rule="evenodd" d="M7 1C3.68629 1 1 3.68629 1 7V47C1 50.3137 3.68629 53 7 53H56L63 59L70 53H119C122.314 53 125 50.3137 125 47V7C125 3.68629 122.314 1 119 1H7Z" fill="#121F29"/>
<path d="M56 53L56.3254 52.6204L56.185 52.5H56V53ZM63 59L62.6746 59.3796L63 59.6585L63.3254 59.3796L63 59ZM70 53V52.5H69.815L69.6746 52.6204L70 53ZM1.5 7C1.5 3.96244 3.96243 1.5 7 1.5V0.5C3.41015 0.5 0.5 3.41015 0.5 7H1.5ZM1.5 47V7H0.5V47H1.5ZM7 52.5C3.96244 52.5 1.5 50.0376 1.5 47H0.5C0.5 50.5899 3.41015 53.5 7 53.5V52.5ZM56 52.5H7V53.5H56V52.5ZM63.3254 58.6204L56.3254 52.6204L55.6746 53.3796L62.6746 59.3796L63.3254 58.6204ZM69.6746 52.6204L62.6746 58.6204L63.3254 59.3796L70.3254 53.3796L69.6746 52.6204ZM119 52.5H70V53.5H119V52.5ZM124.5 47C124.5 50.0376 122.038 52.5 119 52.5V53.5C122.59 53.5 125.5 50.5898 125.5 47H124.5ZM124.5 7V47H125.5V7H124.5ZM119 1.5C122.038 1.5 124.5 3.96243 124.5 7H125.5C125.5 3.41015 122.59 0.5 119 0.5V1.5ZM7 1.5H119V0.5H7V1.5Z" fill="#333D46"/>
</svg>
