<svg width="113" height="25" viewBox="0 0 113 25" fill="none" xmlns="http://www.w3.org/2000/svg">
<path fill-rule="evenodd" clip-rule="evenodd" d="M106.061 0.213379H105.044C104.952 0.217787 104.867 0.263446 104.812 0.337738C104.723 0.373635 104.688 0.480687 104.688 0.55184V15.6159C104.688 15.6871 104.723 15.7589 104.812 15.8486C104.874 15.9083 104.958 15.9404 105.044 15.9377H106.061C106.151 15.9377 106.24 15.9204 106.312 15.8486C106.383 15.7768 106.418 15.7057 106.418 15.6159V12.3685L108.471 9.61915L111.148 15.5986C111.256 15.83 111.416 15.9377 111.649 15.9377H112.648C112.773 15.9377 112.845 15.9204 112.916 15.83C112.987 15.7409 113.005 15.6345 112.951 15.5448L109.614 8.42364L112.417 4.72876C112.488 4.65761 112.488 4.56851 112.434 4.47876C112.398 4.38966 112.326 4.33646 112.237 4.33646H111.202C110.988 4.33646 110.809 4.42556 110.666 4.63966L106.418 10.0659V0.55184C106.414 0.458389 106.376 0.369583 106.312 0.30184C106.223 0.248635 106.151 0.213379 106.061 0.213379ZM73.4341 5.97812C74.2367 4.69351 75.3072 4.05056 76.7181 4.05056H76.8784C77.8963 4.05056 78.7527 4.42556 79.4489 5.15761C80.145 5.85376 80.5732 6.81722 80.7335 8.03133C80.7335 8.24543 80.6271 8.35248 80.3764 8.40569L79.4489 8.38838C79.2348 8.33453 79.1271 8.19158 79.0745 7.97748C78.9489 7.28133 78.7162 6.72812 78.3418 6.29992C77.9489 5.83517 77.4316 5.56787 76.8245 5.54992C75.897 5.60376 75.2181 6.12107 74.7726 7.12043C74.397 7.90569 74.2002 8.86979 74.2002 10.0474C74.2002 11.2076 74.3796 12.2256 74.7187 12.9929C75.1463 14.0807 75.8252 14.6166 76.7354 14.6531C77.9482 14.5813 78.7521 13.7416 79.0739 12.1179C79.1264 11.9211 79.2514 11.814 79.4655 11.814H80.3585L80.3769 11.8193C80.4907 11.8519 80.5591 11.8714 80.6437 11.939C80.7149 12.0108 80.7514 12.082 80.7514 12.1711C80.5553 13.3666 80.0732 14.3307 79.3944 15.0807C78.6982 15.8121 77.8598 16.1877 76.8418 16.1877H76.6816C75.2899 16.1877 74.2002 15.5448 73.4341 14.2775C72.7553 13.1897 72.4335 11.8147 72.4335 10.1544C72.4335 8.47684 72.7553 7.10248 73.4341 5.97812ZM94.6373 4.40761C94.7066 4.34725 94.7962 4.31541 94.888 4.31851H95.9034C95.9892 4.31866 96.072 4.35037 96.1361 4.40761L96.2425 4.63966V11.4044C96.2425 12.3685 96.3681 13.0454 96.5995 13.5102C96.7447 13.8218 96.9583 14.0966 97.2245 14.314C97.5098 14.5095 97.8143 14.6172 98.1348 14.6172C98.4393 14.6172 98.7957 14.4922 99.1527 14.2781C99.5327 14.0739 99.8621 13.7872 100.117 13.439C100.599 12.689 100.848 11.7262 100.848 10.5121V4.63966C100.848 4.54992 100.902 4.47876 100.973 4.40761C101.042 4.34725 101.132 4.31541 101.224 4.31851H102.223C102.319 4.31457 102.411 4.35391 102.474 4.42556L102.58 4.63966V15.6166L102.491 15.8493C102.416 15.9105 102.32 15.9421 102.223 15.9384H101.367C101.275 15.9412 101.186 15.9094 101.116 15.8493C101.045 15.7595 100.991 15.6877 100.991 15.6166V14.0102C100.314 15.4557 99.3136 16.1884 97.9752 16.1884C96.8149 16.1884 95.9232 15.7409 95.3162 14.8672C94.7976 14.1172 94.5123 12.957 94.5123 11.4044V4.63966C94.5123 4.56787 94.5662 4.47876 94.6373 4.40761ZM91.7643 14.3852C91.9611 14.1711 92.1925 14.0813 92.4957 14.0999C92.7822 14.0813 93.0489 14.1711 93.2457 14.3852C93.4425 14.5627 93.5316 14.7961 93.5489 15.0813C93.5309 15.3307 93.4425 15.5634 93.2457 15.7775C93.0489 15.9736 92.7822 16.0627 92.4957 16.0627C92.1925 16.0627 91.9611 15.9743 91.7643 15.7775C91.5502 15.5634 91.4425 15.3307 91.4425 15.0813C91.4351 14.8118 91.5542 14.5542 91.7643 14.3852ZM71.095 14.0999C70.8098 14.0813 70.5764 14.1711 70.3623 14.3852C70.1668 14.5627 70.0418 14.7961 70.0591 15.0813C70.0418 15.3307 70.1668 15.5634 70.3623 15.7775C70.5764 15.9743 70.8091 16.0627 71.095 16.0627C71.3982 16.0627 71.6309 15.9736 71.845 15.7775C72.0591 15.5986 72.1482 15.3307 72.1655 15.0813C72.1482 14.7961 72.0591 14.5627 71.845 14.3852C71.6529 14.1788 71.3758 14.0734 71.095 14.0999ZM17.5835 4.1044C18.8328 4.1044 19.779 4.78261 20.3322 6.12107C20.5643 5.46081 20.9925 4.94287 21.5264 4.62171C22.0437 4.26402 22.5976 4.10376 23.2578 4.10376C24.329 4.10376 25.1328 4.49671 25.7213 5.29992C25.9893 5.69222 26.1861 6.22812 26.2393 6.90633V15.5454C26.2393 15.8134 26.1143 15.9211 25.829 15.9211L23.7226 15.9384C23.4732 15.9211 23.3303 15.7781 23.3303 15.5454V9.81658C23.3303 8.62043 23.3303 7.94222 23.2585 7.78133C23.1514 7.13902 22.7405 6.83517 22.0444 6.83517C21.7591 6.81722 21.5091 6.90633 21.295 7.06723C21.045 7.22748 20.8668 7.44158 20.7777 7.72748C20.6175 8.03069 20.5636 8.72684 20.5636 9.81594V15.5448C20.5636 15.8127 20.4566 15.9204 20.1713 15.9204L18.0476 15.9377C17.7796 15.9204 17.6367 15.7775 17.6726 15.5448V9.81594C17.6726 8.76274 17.6367 8.10248 17.5835 7.85248C17.4412 7.13838 17.0123 6.81723 16.3521 6.81723C15.6739 6.81723 15.263 7.13902 15.0489 7.85248C14.9239 8.19158 14.8886 8.85184 14.9066 9.81594V15.5448C14.888 15.8127 14.763 15.9204 14.4957 15.9204L12.3893 15.9377C12.122 15.9204 12.0149 15.8127 11.979 15.5986V4.72876C11.979 4.47876 12.1213 4.33646 12.4072 4.33646H14.37C14.6027 4.35376 14.745 4.47876 14.763 4.71081V6.12107H14.8168C15.2989 4.78261 16.245 4.1044 17.5835 4.1044ZM40.2694 4.31851C39.9835 4.31851 39.8764 4.42556 39.8764 4.71081V6.24607C39.8764 6.51338 40.0194 6.65633 40.2873 6.65633H43.9284L39.7341 12.6172C39.5739 12.8852 39.4841 13.2243 39.4841 13.7063V15.2589C39.4841 15.3839 39.52 15.5095 39.6444 15.5634C39.7514 15.6698 39.8585 15.6871 39.9655 15.6159C41.1079 15.0102 42.3752 14.7057 43.7316 14.7243C45.0527 14.7595 46.2303 15.0275 47.3373 15.6159L47.6944 15.5634C47.8014 15.5095 47.8546 15.4018 47.8546 15.2589V13.5999C47.8014 13.332 47.6944 13.1166 47.4803 12.9929C46.4271 12.4031 45.0886 12.1179 43.5002 12.1717L47.1059 7.03069C47.463 6.53133 47.6412 6.20953 47.6412 6.01338V4.71017C47.6412 4.42492 47.4982 4.31787 47.2482 4.31787H40.2694V4.31851ZM65.704 4.1044C66.8296 4.1044 67.6495 4.51466 68.1854 5.38966C68.5425 5.97812 68.7386 7.10248 68.7386 8.78069V15.6159C68.7034 15.83 68.5604 15.9204 68.3277 15.9204L66.2046 15.9377C65.9905 15.9204 65.8463 15.83 65.8463 15.6159V9.70889C65.8284 8.72748 65.7745 8.10248 65.7034 7.79928C65.5258 7.12043 65.1502 6.76338 64.5264 6.79928C63.9367 6.79928 63.5437 7.06722 63.2944 7.65633C63.0617 8.15569 62.9553 8.83389 62.9553 9.70889V15.5448C62.9187 15.8127 62.795 15.9204 62.5271 15.9204L60.4213 15.9377C60.1707 15.9204 60.0284 15.7775 60.0457 15.5448V4.69351C60.0457 4.44351 60.188 4.33646 60.4386 4.33646H62.4194C62.5956 4.34934 62.7453 4.47017 62.795 4.63966V6.29992H62.8303C63.1348 5.53197 63.5091 5.01466 63.9373 4.65761C64.4021 4.28325 64.9905 4.1044 65.704 4.1044Z" fill="white"/>
<path d="M10.0158 17.2589C9.90874 17.4192 9.94464 17.5807 10.1408 17.741C12.5268 19.9066 15.284 21.6238 18.2799 22.8102C21.3857 24.0237 24.6344 24.6307 28.0793 24.6307C30.695 24.5968 33.2945 24.2124 35.8081 23.4878C38.5209 22.6679 40.8594 21.5423 42.769 20.1147C43.0728 19.8833 43.1799 19.65 42.9831 19.3833C42.8228 19.0968 42.5369 19.0615 42.1978 19.2044C37.7716 21.0788 33.2017 21.9891 28.5075 21.9891C25.2767 21.9891 22.0998 21.5609 18.976 20.7218C15.9421 19.9006 13.1216 18.7589 10.5337 17.241C10.319 17.0987 10.1401 17.116 10.0158 17.2589Z" fill="#DFA63D"/>
<path d="M46.1237 16.9385C45.9987 16.7943 45.7314 16.6706 45.2493 16.5629L43.625 16.4199C42.0185 16.4372 40.7153 16.8129 39.6801 17.509C39.5198 17.652 39.4301 17.7943 39.4839 17.9199C39.4839 18.0263 39.591 18.0802 39.7871 18.0436C42.5717 17.7404 44.1064 17.7943 44.4461 18.2225C44.7852 18.668 44.4102 20.1853 43.3929 22.7558C43.2858 22.9347 43.3397 23.059 43.4467 23.1129C43.5711 23.1494 43.7141 23.1302 43.875 22.9879C44.8391 22.1853 45.5352 21.0251 45.9814 19.5071C46.1416 18.9013 46.2314 18.3475 46.2673 17.8468C46.2666 17.3667 46.2314 17.0622 46.1237 16.9385Z" fill="#DFA63D"/>
<path fill-rule="evenodd" clip-rule="evenodd" d="M4.57132 8.85168L4.99952 8.79847L6.57196 8.62027L6.55401 7.56706C6.53606 7.2286 6.44696 6.97796 6.32196 6.8177C6.07196 6.4427 5.66106 6.24655 5.10786 6.24655C5.07196 6.24655 5.0367 6.24655 5.00081 6.2645C4.62581 6.2818 4.30465 6.38885 4.05465 6.58565C3.71555 6.79975 3.5194 7.12091 3.41234 7.51385C3.37645 7.78116 3.25145 7.90616 3.03734 7.90616L1.00273 7.71001C0.735422 7.63821 0.62837 7.49591 0.699524 7.26385C0.913627 6.12155 1.50273 5.2645 2.48478 4.71129C3.18093 4.30103 4.02004 4.06834 5.00145 4.01514H5.42965C6.82196 4.01514 7.89311 4.35488 8.60722 5.06834C9.05273 5.47924 9.35658 6.05039 9.46363 6.7286C9.49888 7.0318 9.55273 7.71001 9.55273 8.71001V12.0119C9.55273 12.4222 9.62452 12.7792 9.80273 13.1363L10.338 13.9574C10.5162 14.1715 10.5162 14.3856 10.338 14.5094L8.71363 15.9203C8.57068 16.0453 8.40978 16.0632 8.21363 15.9741L7.49952 15.2414L6.98158 14.5453C6.39247 15.1337 5.85722 15.5446 5.35722 15.7587C5.25016 15.8126 5.12517 15.8485 5.00017 15.8837C4.57196 16.0094 4.08991 16.0805 3.51875 16.0805C2.5726 16.0805 1.80465 15.8305 1.25145 15.2594C0.627088 14.6536 0.323242 13.8324 0.323242 12.7792C0.323242 11.9574 0.537345 11.2613 0.96555 10.6549C1.3585 10.0831 1.89375 9.65488 2.60786 9.33373C3.08927 9.13757 3.75017 8.95873 4.57132 8.85168ZM4.71363 13.9568C4.80337 13.9568 4.91042 13.9568 4.99952 13.9382C5.48158 13.8491 5.85658 13.5465 6.1585 12.9927C6.33734 12.6709 6.48029 12.3312 6.5335 11.9389C6.5335 11.8004 6.54105 11.5864 6.55126 11.2972L6.55126 11.2972C6.55679 11.1406 6.56309 10.9619 6.5694 10.7613V10.3331C5.96299 10.3331 5.42709 10.3863 4.99888 10.5113C3.94568 10.7965 3.41042 11.4395 3.41042 12.4209C3.41042 12.9036 3.53542 13.278 3.76747 13.5273C3.98222 13.8126 4.30337 13.9568 4.71363 13.9568ZM32.77 8.79847L32.3418 8.85168C31.5207 8.95873 30.8604 9.13757 30.3784 9.33373C29.6643 9.65488 29.129 10.0831 28.7361 10.6549C28.3079 11.2613 28.0931 11.9574 28.0931 12.7792C28.0931 13.8324 28.397 14.6536 29.0213 15.2594C29.5745 15.8305 30.3425 16.0805 31.288 16.0805C31.8591 16.0805 32.3412 16.0094 32.7694 15.8837C32.8944 15.8485 33.0194 15.8126 33.1264 15.7587C33.6258 15.5446 34.1617 15.1337 34.7508 14.5453L35.2688 15.2414L35.9829 15.9741C36.179 16.0632 36.3399 16.0453 36.4822 15.9203L38.1066 14.5094C38.2848 14.3856 38.2848 14.1715 38.1066 13.9574L37.5713 13.1363C37.3931 12.7792 37.3213 12.4222 37.3213 12.0119V8.71001C37.3213 7.71001 37.2681 7.0318 37.2322 6.7286C37.1252 6.05039 36.8213 5.47924 36.3752 5.06834C35.6617 4.35488 34.5905 4.01514 33.1982 4.01514H32.77C31.7886 4.06834 30.9495 4.30103 30.2534 4.71129C29.272 5.2645 28.6829 6.12155 28.4688 7.26385C28.3976 7.49591 28.5047 7.63821 28.7726 7.71001L30.8072 7.90616C31.0213 7.90616 31.1463 7.78116 31.1822 7.51385C31.2893 7.12091 31.4861 6.79975 31.8245 6.58565C32.0745 6.38885 32.3957 6.2818 32.7707 6.2645C32.8066 6.24655 32.8418 6.24655 32.8777 6.24655C33.4309 6.24655 33.8412 6.4427 34.0912 6.8177C34.2162 6.97796 34.3053 7.2286 34.3232 7.56706L34.3412 8.62027L32.77 8.79847ZM32.4848 13.9568C32.5739 13.9568 32.6809 13.9568 32.77 13.9382C33.2521 13.8491 33.6271 13.5465 33.9303 12.9927C34.1085 12.6709 34.2514 12.3312 34.3053 11.9389C34.3053 11.8004 34.3128 11.5865 34.323 11.2975L34.3231 11.2972C34.3286 11.1406 34.3349 10.9619 34.3412 10.7613V10.3331C33.7341 10.3331 33.1982 10.3863 32.77 10.5113C31.7168 10.7965 31.1816 11.4395 31.1816 12.4209C31.1816 12.9036 31.3066 13.278 31.5386 13.5273C31.7527 13.8126 32.0739 13.9568 32.4848 13.9568ZM53.6386 4.1036C52.1572 4.1036 50.9611 4.6927 50.1047 5.85296C49.2835 6.92347 48.8553 8.35168 48.8553 10.119C48.8553 11.8683 49.2835 13.2786 50.1047 14.403C50.9438 15.5985 52.1393 16.1882 53.6386 16.1882H53.6745C55.1027 16.1696 56.263 15.5812 57.1559 14.4568C58.0123 13.3324 58.4579 11.9574 58.4579 10.2619C58.4579 8.45937 58.0297 7.03116 57.2271 5.9068C56.3521 4.71065 55.1559 4.10424 53.6745 4.10424L53.6386 4.1036ZM53.638 13.903H53.6739C54.3527 13.903 54.8348 13.4748 55.1027 12.5991C55.2636 12.0818 55.3348 11.2786 55.3348 10.2613C55.3348 9.02988 55.2457 8.08373 55.0316 7.40552C54.7989 6.70937 54.3348 6.33437 53.6745 6.31642H53.6566C52.9604 6.31642 52.4784 6.74462 52.2284 7.56578C52.0675 8.08309 51.9963 8.83309 51.9963 9.77924C51.9963 10.9574 52.0675 11.7965 52.1745 12.3677C52.4239 13.4036 52.9066 13.903 53.638 13.903ZM86.3559 4.05039C84.9098 4.06834 83.7681 4.6395 82.9643 5.85296C82.1444 6.96001 81.7688 8.35168 81.7688 10.0651C81.7688 11.7427 82.1079 13.1356 82.822 14.2594C83.6085 15.544 84.7149 16.1876 86.1425 16.1876H86.3566C87.7662 16.151 88.9091 15.5267 89.7482 14.3312C90.5335 13.2068 90.9438 11.7965 90.9617 10.0831C90.9444 8.42347 90.5873 7.04911 89.8547 5.92475C89.0348 4.69334 87.945 4.05039 86.5354 4.05039H86.3559ZM85.1425 14.2773C85.4822 14.5453 85.9104 14.6882 86.3559 14.7055C87.3373 14.653 88.0873 14.0998 88.5694 12.9927C88.9085 12.2965 89.0688 11.3145 89.0688 10.0651C89.0688 8.70873 88.8547 7.65552 88.4264 6.88821C88.1938 6.49527 87.8905 6.13821 87.5514 5.90616C87.1412 5.63821 86.7489 5.53116 86.3559 5.53116C85.8559 5.53116 85.4457 5.69142 85.0348 5.97732C84.6425 6.28052 84.3559 6.65552 84.1418 7.17347C83.8027 7.88757 83.6425 8.86898 83.6425 10.0651C83.6425 11.3863 83.8393 12.4209 84.2136 13.2068C84.4171 13.6435 84.7389 14.0143 85.1425 14.2773Z" fill="white"/>
</svg>
