<svg width="93" height="25" viewBox="0 0 93 25" fill="none" xmlns="http://www.w3.org/2000/svg">
<path d="M42.9603 20.2073C38.942 23.1729 33.1166 24.7493 28.1021 24.7493C21.0727 24.7493 14.7426 22.1503 9.95119 17.8239C9.57509 17.4855 9.90955 17.0206 10.3632 17.2851C15.5309 20.2924 21.9232 22.1031 28.5235 22.1031C32.9767 22.1031 37.8722 21.1788 42.3764 19.2679C43.0567 18.9806 43.6257 19.7159 42.9603 20.2073Z" fill="#F5A623"/>
<path d="M44.6322 18.2983C44.118 17.6405 41.2356 17.9864 39.9389 18.1414C39.5477 18.1887 39.4873 17.8466 39.8407 17.5971C42.141 15.9829 45.9081 16.4498 46.3466 16.9904C46.7888 17.5347 46.2312 21.3131 44.0765 23.1163C43.7438 23.3942 43.4282 23.2467 43.5756 22.88C44.0613 21.6684 45.1463 18.9562 44.6322 18.2983Z" fill="#F5A623"/>
<path d="M40.0317 6.18597V4.61715C40.0317 4.37708 40.213 4.21826 40.4285 4.21826H47.4636C47.6905 4.21826 47.8699 4.3809 47.8699 4.61524V5.96105C47.8681 6.18597 47.6772 6.48081 47.3407 6.9495L43.6966 12.1512C45.048 12.1191 46.4789 12.3213 47.7093 13.0131C47.9853 13.168 48.0608 13.4006 48.0817 13.6255V15.3001C48.0817 15.5326 47.8303 15.7991 47.5638 15.6593C45.3977 14.5252 42.5247 14.4005 40.1318 15.6743C39.8861 15.803 39.6309 15.5402 39.6309 15.3096V13.7181C39.6309 13.463 39.6347 13.0263 39.8917 12.6388L44.1143 6.58092H40.4379C40.213 6.58092 40.0336 6.42032 40.0317 6.18597Z" fill="white"/>
<path d="M14.3695 15.9895H12.2299C12.0258 15.9763 11.8631 15.8232 11.8462 15.6285L11.8481 4.64313C11.8481 4.42382 12.0333 4.24806 12.2601 4.24806H14.2542C14.4622 4.25749 14.6303 4.4163 14.6435 4.61664V6.04932H14.6833C15.203 4.66389 16.1822 4.01562 17.4996 4.01562C18.8397 4.01562 19.6789 4.66389 20.2781 6.04932C20.7959 4.66389 21.9754 4.01562 23.2342 4.01562C24.1339 4.01562 25.1129 4.386 25.7122 5.21766C26.3907 6.14203 26.2509 7.48391 26.2509 8.66148L26.249 15.5945C26.249 15.8138 26.0637 15.9895 25.8369 15.9895H23.6991C23.4837 15.9763 23.3155 15.8061 23.3155 15.5964L23.3136 9.77104C23.3136 9.30987 23.3533 8.15306 23.255 7.71456C23.0943 6.97549 22.6143 6.76763 21.9962 6.76763C21.4764 6.76763 20.9358 7.11354 20.7166 7.66921C20.4973 8.22298 20.5162 9.14724 20.5162 9.77104V15.5945C20.5162 15.8138 20.3329 15.9895 20.1041 15.9895H17.9664C17.7528 15.9763 17.5828 15.8061 17.5828 15.5964L17.5808 9.77104C17.5808 8.54622 17.7793 6.74305 16.2615 6.74305C14.723 6.74305 14.7834 8.50088 14.7834 9.77104L14.7816 15.5945C14.7816 15.8138 14.5982 15.9895 14.3695 15.9895Z" fill="white"/>
<path fill-rule="evenodd" clip-rule="evenodd" d="M58.8205 10.2105C58.8205 6.74403 57.1023 4.0166 53.9251 4.0166C50.8291 4.0166 49.1108 6.6741 49.1108 10.0953C49.1108 13.4936 50.8082 16.2212 53.9251 16.2212C56.9227 16.2212 58.8205 13.5635 58.8205 10.2105ZM52.2675 9.74935C52.2675 8.40735 52.3676 6.25827 53.9458 6.25827C54.6244 6.25827 55.1045 6.55872 55.3445 7.32237C55.6243 8.19938 55.6639 9.30894 55.6639 10.2332C55.6639 11.6451 55.5846 13.9548 53.9251 13.9548C52.2668 13.9548 52.2672 11.1518 52.2675 9.79385C52.2675 9.77883 52.2675 9.764 52.2675 9.74935Z" fill="white"/>
<path d="M62.94 15.9895H60.8078C60.5924 15.9763 60.4241 15.8061 60.4241 15.5964L60.4204 4.60722C60.4374 4.40497 60.615 4.24806 60.8305 4.24806H62.8171C63.0042 4.25749 63.1573 4.38421 63.197 4.55424V6.23463H63.2367C63.8358 4.73191 64.675 4.01562 66.1532 4.01562C67.1133 4.01562 68.0508 4.36332 68.6518 5.31037C69.2094 6.18928 69.2094 7.66921 69.2094 8.7314V15.6436C69.1868 15.8384 69.011 15.9895 68.8012 15.9895H66.6541C66.4574 15.9763 66.2968 15.8307 66.2741 15.6436V9.68024C66.2741 8.47821 66.414 6.72038 64.9341 6.72038C64.4161 6.72038 63.9361 7.0682 63.696 7.59929C63.3973 8.26832 63.3576 8.93938 63.3576 9.68024V15.5945C63.352 15.8138 63.1686 15.9895 62.94 15.9895Z" fill="white"/>
<path fill-rule="evenodd" clip-rule="evenodd" d="M8.01753 16.0118C8.17814 16.0986 8.3823 16.0892 8.52405 15.9626L8.52977 15.9682C8.95694 15.5865 9.73372 14.9116 10.1703 14.545C10.3443 14.4032 10.314 14.1727 10.1779 13.978C10.1358 13.9198 10.0934 13.8627 10.0512 13.806C9.70159 13.3361 9.36895 12.889 9.36895 11.9933V8.65913C9.36895 8.54407 9.36962 8.42979 9.37028 8.3164C9.3777 7.0364 9.38447 5.86943 8.42955 4.97523C7.60731 4.18903 6.24646 3.91113 5.20503 3.91113C3.16931 3.91113 0.89554 4.67096 0.419213 7.18672C0.368144 7.45519 0.562875 7.59503 0.738633 7.63464L2.81206 7.85956C3.00679 7.85014 3.14664 7.65922 3.18446 7.46652C3.36213 6.59894 4.08796 6.1812 4.90446 6.1812C5.34488 6.1812 5.84578 6.34181 6.10662 6.73688C6.37496 7.13023 6.37051 7.65169 6.3665 8.12224C6.36602 8.17854 6.36554 8.23411 6.36554 8.28864V8.56654C6.17095 8.58848 5.96695 8.60926 5.7568 8.63067C4.62788 8.74569 3.32146 8.87878 2.34146 9.30752C1.00138 9.88777 0.0600586 11.069 0.0600586 12.8061C0.0600586 15.0307 1.46064 16.1422 3.26381 16.1422C4.78538 16.1422 5.61705 15.783 6.7908 14.5866C6.8517 14.6744 6.90618 14.7552 6.95747 14.8313C7.23407 15.2414 7.41802 15.5142 8.01753 16.0118ZM6.36563 10.8565C6.36559 10.8192 6.36554 10.7817 6.36554 10.7439V10.2809C4.81748 10.2809 3.18255 10.6117 3.18255 12.4356C3.18255 13.3618 3.6627 13.9874 4.48482 13.9874C5.08595 13.9874 5.62647 13.6169 5.96677 13.014C6.36728 12.3067 6.36652 11.6407 6.36563 10.8565Z" fill="white"/>
<path fill-rule="evenodd" clip-rule="evenodd" d="M36.0745 16.0118C36.2353 16.0986 36.4394 16.0892 36.5812 15.9626L36.5868 15.9682C37.014 15.5865 37.7908 14.9116 38.2274 14.545C38.4013 14.4032 38.3711 14.1727 38.235 13.978C38.1929 13.9198 38.1505 13.8628 38.1083 13.8062C37.7587 13.3362 37.4261 12.8891 37.4261 11.9933V8.65913C37.4261 8.54425 37.4267 8.43015 37.4274 8.31693C37.4348 7.03672 37.4416 5.86956 36.4848 4.97523C35.6644 4.18903 34.3036 3.91113 33.262 3.91113C31.2245 3.91113 28.9525 4.67096 28.4762 7.18672C28.4253 7.45519 28.6199 7.59503 28.7958 7.63464L30.8692 7.85956C31.0638 7.85014 31.2038 7.65922 31.2416 7.46652C31.4193 6.59894 32.145 6.1812 32.9616 6.1812C33.402 6.1812 33.9028 6.34181 34.1636 6.73688C34.4321 7.13024 34.4276 7.65173 34.4236 8.12229C34.4231 8.17857 34.4227 8.23412 34.4227 8.28864V8.56654C34.2281 8.58848 34.0241 8.60926 33.8139 8.63067C32.685 8.74569 31.3786 8.87878 30.3986 9.30752C29.0584 9.88777 28.1172 11.069 28.1172 12.8061C28.1172 15.0307 29.5178 16.1422 31.3209 16.1422C32.8425 16.1422 33.6742 15.783 34.8479 14.5866C34.9089 14.6745 34.9635 14.7554 35.0148 14.8316C35.2913 15.2416 35.4752 15.5143 36.0745 16.0118ZM34.4228 10.8564C34.4227 10.8192 34.4227 10.7817 34.4227 10.7439V10.2809C32.8746 10.2809 31.2397 10.6117 31.2397 12.4356C31.2397 13.3618 31.7197 13.9874 32.5419 13.9874C33.143 13.9874 33.6817 13.6169 34.0238 13.014C34.4244 12.3067 34.4236 11.6406 34.4228 10.8564Z" fill="white"/>
<path fill-rule="evenodd" clip-rule="evenodd" d="M80.6681 16.0029H81.532C81.7172 16.0029 81.8987 15.8442 81.9006 15.6665V0.418796C81.8987 0.239218 81.7134 0.0786133 81.5301 0.0786133H80.5264C80.345 0.0786133 80.1597 0.239218 80.1578 0.418796V5.52595C79.468 4.51471 78.659 3.90987 77.3132 3.90987C74.2097 3.90987 73.0321 7.15896 73.0321 10.1076C73.0321 11.546 73.291 13.0317 73.9903 14.2394C74.7275 15.4925 75.6877 16.2354 77.1789 16.2354C78.6836 16.2354 79.6513 15.5152 80.2977 14.2243V15.6646C80.2996 15.8423 80.4848 16.0048 80.6681 16.0029ZM87.9716 3.90987C91.1281 3.90987 92.4796 6.76401 92.4966 9.90536C92.4985 10.0849 92.3114 10.2436 92.1337 10.2436L85.127 10.2455C85.127 11.1755 85.1667 12.0337 85.5466 12.9163C86.0115 13.9994 87.0247 14.6647 88.0528 14.7025C89.2172 14.6628 90.0905 13.9256 90.5573 12.7538C90.6273 12.5799 90.8465 12.4703 91.0166 12.5005L91.9561 12.6971C92.1545 12.7443 92.283 12.9314 92.2319 13.1035C91.5648 15.0654 89.9979 16.2354 87.9262 16.2354C84.7376 16.2354 83.1858 13.404 83.1858 10.1076C83.1858 6.85661 84.8454 3.90987 87.9716 3.90987ZM85.2063 8.89985H90.5932C90.6121 6.98511 89.7087 5.36152 87.9735 5.30294C86.3272 5.36343 85.2649 7.0758 85.2063 8.89985ZM70.5522 15.1183C70.5522 14.5664 71.0248 14.1184 71.605 14.1184C72.1872 14.1184 72.6597 14.5664 72.6597 15.1183C72.6597 15.6702 72.1872 16.1183 71.605 16.1183C71.0248 16.1183 70.5522 15.6702 70.5522 15.1183ZM80.1578 9.01702V10.8958C80.1578 11.7785 80.0387 12.544 79.5606 13.3114C79.0578 14.1184 78.2753 14.6874 77.4115 14.7252C75.3191 14.642 74.8919 11.7955 74.8919 9.89784C74.8919 8.82993 75.0318 7.76189 75.4912 6.83393C75.9164 6.00418 76.6214 5.3898 77.4626 5.35019C78.3074 5.38419 79.1599 5.86613 79.6399 6.6713C80.0596 7.36885 80.1578 8.20421 80.1578 9.01702Z" fill="white"/>
</svg>
