<svg width="148" height="60" viewBox="0 0 148 60" fill="none" xmlns="http://www.w3.org/2000/svg">
<path fill-rule="evenodd" clip-rule="evenodd" d="M7 1C3.68629 1 1 3.68629 1 7V47C1 50.3137 3.68629 53 7 53H67L74 59L81 53H141C144.314 53 147 50.3137 147 47V7C147 3.68629 144.314 1 141 1H7Z" fill="#121F29"/>
<path d="M67 53L67.3254 52.6204L67.185 52.5H67V53ZM74 59L73.6746 59.3796L74 59.6585L74.3254 59.3796L74 59ZM81 53V52.5H80.815L80.6746 52.6204L81 53ZM1.5 7C1.5 3.96244 3.96243 1.5 7 1.5V0.5C3.41015 0.5 0.5 3.41015 0.5 7H1.5ZM1.5 47V7H0.5V47H1.5ZM7 52.5C3.96244 52.5 1.5 50.0376 1.5 47H0.5C0.5 50.5899 3.41015 53.5 7 53.5V52.5ZM67 52.5H7V53.5H67V52.5ZM74.3254 58.6204L67.3254 52.6204L66.6746 53.3796L73.6746 59.3796L74.3254 58.6204ZM80.6746 52.6204L73.6746 58.6204L74.3254 59.3796L81.3254 53.3796L80.6746 52.6204ZM141 52.5H81V53.5H141V52.5ZM146.5 47C146.5 50.0376 144.038 52.5 141 52.5V53.5C144.59 53.5 147.5 50.5898 147.5 47H146.5ZM146.5 7V47H147.5V7H146.5ZM141 1.5C144.038 1.5 146.5 3.96243 146.5 7H147.5C147.5 3.41015 144.59 0.5 141 0.5V1.5ZM7 1.5H141V0.5H7V1.5Z" fill="#333D46"/>
</svg>
