<svg width="32" height="32" viewBox="0 0 32 32" fill="none" xmlns="http://www.w3.org/2000/svg">
<path d="M7.95889 8.8335L7.06956 4.8335H4.49756" stroke="white" stroke-width="1.5" stroke-linecap="round" stroke-linejoin="round"/>
<path fill-rule="evenodd" clip-rule="evenodd" d="M10.3078 19.7802L7.9585 8.8335H24.8358C25.6852 8.8335 26.3172 9.61616 26.1398 10.4468L24.1372 19.7802C24.0052 20.3948 23.4625 20.8335 22.8332 20.8335H11.6105C10.9825 20.8335 10.4398 20.3948 10.3078 19.7802Z" stroke="white" stroke-width="1.5" stroke-linecap="round" stroke-linejoin="round"/>
<path d="M23.2826 24.9167C22.5926 24.9167 22.0326 25.4767 22.0393 26.1667C22.0393 26.8567 22.5993 27.4167 23.2893 27.4167C23.9793 27.4167 24.5393 26.8567 24.5393 26.1667C24.5359 25.4767 23.9759 24.9167 23.2826 24.9167" stroke="white" stroke-width="1.5" stroke-linecap="round" stroke-linejoin="round"/>
<path d="M10.8053 24.9167C10.1153 24.9167 9.55525 25.4767 9.56192 26.1667C9.55858 26.8567 10.1186 27.4167 10.8086 27.4167C11.4986 27.4167 12.0586 26.8567 12.0586 26.1667C12.0586 25.4767 11.4986 24.9167 10.8053 24.9167" stroke="white" stroke-width="1.5" stroke-linecap="round" stroke-linejoin="round"/>
</svg>
