<svg width="178" height="32" viewBox="0 0 178 32" fill="none" xmlns="http://www.w3.org/2000/svg">
<path fill-rule="evenodd" clip-rule="evenodd" d="M120.949 23.2229H137.014V19.6571H126.426C127.099 16.9614 129.36 15.2359 131.604 13.5241C134.23 11.5202 136.832 9.53512 136.832 6.03429C136.832 2.56 134.458 0 129.438 0C126.334 0 123.596 0.914286 121.77 1.82857L122.866 5.12C124.509 4.29714 126.426 3.56571 128.799 3.56571C130.625 3.56571 132.359 4.38857 132.359 6.49143C132.359 8.37972 130.703 9.57571 128.649 11.059C125.532 13.3102 121.499 16.2232 120.949 23.2229ZM137.471 17.5543H147.786V23.2229H151.893V17.5543H155.362V14.08H151.893V0H148.881L137.471 14.8114V17.5543ZM147.968 6.4L142.126 14.2629C142.372 14.2629 142.821 14.2444 143.316 14.224C143.921 14.1991 144.595 14.1714 145.047 14.1714H147.786V10.88C147.786 9.73112 147.858 8.51005 147.911 7.6023C147.943 7.06526 147.968 6.63789 147.968 6.4Z" fill="#005893"/>
<path fill-rule="evenodd" clip-rule="evenodd" d="M0.0912821 23.2227H6.20718C13.0533 23.2227 15.5179 20.2056 15.5179 15.9999C15.5179 13.1656 14.3313 11.2456 12.2318 10.1485C10.5887 9.23417 8.48923 8.95988 5.93333 8.95988H4.29026V3.47417H13.5097L14.6051 0.0913086H0V23.2227H0.0912821ZM4.29026 19.7485V12.5256H6.02462C7.57641 12.5256 8.85436 12.7085 9.76718 13.257C10.68 13.8056 11.2277 14.7199 11.2277 16.1827C11.2277 18.6513 9.76718 19.7485 6.29846 19.7485H4.29026ZM22.3641 23.2227H18.3477V6.76559H22.4554V14.0799C22.4554 15.3599 22.3641 16.6399 22.2728 17.6456H22.3641C22.4722 17.4724 22.6007 17.2634 22.746 17.027L22.7464 17.0263C23.215 16.2642 23.8584 15.2177 24.5549 14.1713L29.7579 6.67417H33.7744V23.1313H29.6667V15.817C29.6667 14.537 29.7579 13.257 29.8492 12.2513H29.7579C29.6345 12.4491 29.4911 12.6937 29.3276 12.9724L29.3276 12.9724C28.8866 13.7245 28.2998 14.725 27.5672 15.7256L22.3641 23.2227ZM40.8031 23.2227H45.002V10.1485H49.9313L51.0267 6.67417H35.7826V10.1485H40.8031V23.2227ZM56.5949 31.5427H52.4872H52.3959V7.22274C54.2215 6.67417 56.4123 6.21702 58.6944 6.21702C64.6277 6.21702 67.7313 9.59988 67.7313 14.9027C67.7313 20.0227 64.3538 23.5885 59.1508 23.5885C58.2379 23.5885 57.4164 23.497 56.5949 23.2227V31.5427ZM56.5949 19.657V9.96559C57.2338 9.78274 57.7815 9.69131 58.5118 9.69131C61.5241 9.69131 63.441 11.337 63.441 14.9027C63.441 18.1027 61.8892 20.1142 58.7856 20.1142C57.9641 20.1142 57.3251 19.9313 56.5949 19.657ZM74.2123 23.2227H70.1959V6.76559H74.3036V14.0799C74.3036 15.3599 74.2123 16.6399 74.121 17.6456H74.2123C74.3205 17.4722 74.4492 17.2629 74.5947 17.0262L74.5949 17.0258L74.5953 17.0252C75.0639 16.2631 75.7069 15.2172 76.4031 14.1713L81.6062 6.67417H85.6226V23.1313H81.5149V15.817C81.5149 14.537 81.6062 13.257 81.6974 12.2513H81.6062C81.483 12.4486 81.34 12.6925 81.177 12.9705L81.1761 12.9719L81.1758 12.9724C80.7348 13.7244 80.148 14.725 79.4154 15.7256L74.2123 23.2227ZM88.9087 23.2227H93.1077V16.3656H95.5723C96.0287 16.3656 96.4851 16.8227 97.0328 17.9199L99.1323 23.2227H103.605L100.593 16.9142C100.045 15.817 99.4974 15.177 98.6759 14.9027V14.8113C99.5263 14.3002 99.919 13.1896 100.291 12.1365L100.291 12.1365C100.518 11.494 100.738 10.8731 101.049 10.4227C101.323 10.057 101.688 9.87417 102.236 9.87417C102.51 9.87417 102.875 9.87417 103.149 10.057V6.49131C102.692 6.30845 101.871 6.21702 101.414 6.21702C99.9538 6.21702 99.041 6.76559 98.402 7.67988C97.8964 8.42269 97.5775 9.36499 97.2752 10.2581C96.7589 11.7836 96.2912 13.1656 95.0246 13.1656H93.1077V6.67417H88.9087V23.2227ZM118.575 21.9427C117.297 22.857 115.198 23.5885 112.916 23.5885C107.53 23.5885 104.609 19.8399 104.609 15.0856C104.609 9.87417 108.443 6.21702 113.372 6.21702C115.472 6.21702 116.932 6.76559 117.845 7.31417V10.8799C116.658 10.057 115.472 9.59988 113.829 9.59988C110.725 9.59988 108.899 11.977 108.899 14.9942C108.899 18.377 110.725 20.2056 113.555 20.2056C115.107 20.2056 116.202 19.7485 117.389 19.1085L118.575 21.9427Z" fill="#0BBBEF"/>
<path fill-rule="evenodd" clip-rule="evenodd" d="M168.963 17.5541C173.436 17.5541 177.087 13.8969 177.087 9.41693C177.087 4.93693 173.436 1.27979 168.963 1.27979C164.49 1.27979 160.839 4.93693 160.839 9.41693C160.93 13.8969 164.49 17.5541 168.963 17.5541Z" stroke="#005893" stroke-width="1.7688"/>
<path d="M174.075 9.41701H169.602V4.93701H168.416V10.6056H174.075V9.41701Z" fill="#005893"/>
</svg>
