<svg width="32" height="32" viewBox="0 0 32 32" fill="none" xmlns="http://www.w3.org/2000/svg">
<path d="M10.6118 12.8892L15.9998 15.9998L21.3878 12.8892" stroke="black" stroke-width="1.5" stroke-linecap="round" stroke-linejoin="round"/>
<path d="M16.0002 16V22.2267" stroke="black" stroke-width="1.5" stroke-linecap="round" stroke-linejoin="round"/>
<path fill-rule="evenodd" clip-rule="evenodd" d="M21.5532 18.4948V13.5068C21.5532 13.0655 21.3185 12.6588 20.9358 12.4375L16.6158 9.94283C16.2345 9.72283 15.7638 9.72283 15.3812 9.94283L11.0612 12.4375C10.6798 12.6575 10.4438 13.0655 10.4438 13.5068V18.4948C10.4438 18.9362 10.6785 19.3428 11.0612 19.5642L15.3812 22.0588C15.7625 22.2788 16.2332 22.2788 16.6158 22.0588L20.9358 19.5642C21.3185 19.3428 21.5532 18.9348 21.5532 18.4948Z" stroke="black" stroke-width="1.5" stroke-linecap="round" stroke-linejoin="round"/>
<path d="M27.6479 6.04932V10.0493H23.6479H27.6479" stroke="black" stroke-width="1.5" stroke-linecap="round" stroke-linejoin="round"/>
<path d="M26.9308 10.0495C24.8202 6.18149 20.7175 3.55615 16.0002 3.55615C9.12682 3.55615 3.55615 9.12815 3.55615 16.0002C3.55615 22.8722 9.12682 28.4442 16.0002 28.4442C22.8735 28.4442 28.4442 22.8722 28.4442 16.0002" stroke="black" stroke-width="1.5" stroke-linecap="round" stroke-linejoin="round"/>
</svg>
