<svg width="176" height="39" viewBox="0 0 176 39" fill="none" xmlns="http://www.w3.org/2000/svg">
<path d="M175.748 0V38.786H0V0H175.748Z" fill="#FECC00"/>
<path fill-rule="evenodd" clip-rule="evenodd" d="M55.3026 18.0827L55.3024 18.0829C54.7711 18.8196 54.2336 19.5649 53.83 20.1098C53.433 20.6468 52.716 21.6218 55.093 21.6218H67.608C67.608 21.6218 69.625 18.8778 71.316 16.5828C73.616 13.4608 71.515 6.96484 63.292 6.96484H30.908L25.293 14.5938H55.896C57.441 14.5938 57.42 15.1818 56.665 16.2058C56.2934 16.7091 55.8007 17.3921 55.3026 18.0827ZM47.471 23.5038C45.094 23.5038 45.811 22.5268 46.208 21.9898C46.6344 21.4141 47.2166 20.6204 47.7824 19.849C48.2542 19.2056 48.7148 18.5778 49.064 18.1048C49.82 17.0808 49.84 16.4928 48.293 16.4928H34.297L23.02 31.8188H50.521C59.604 31.8188 64.661 25.6408 66.22 23.5048C66.22 23.5038 49.985 23.5038 47.471 23.5038ZM81.494 31.8188H65.361C65.361 31.8188 71.474 23.5038 71.479 23.5048L87.61 23.5028L81.494 31.8188ZM106.986 6.96484L100.798 15.3698H93.598L99.783 6.96484H83.655L72.865 21.6218H112.325L123.112 6.96484H106.986ZM104.821 31.8188H88.694C88.694 31.8188 94.807 23.5038 94.813 23.5048H110.94L104.821 31.8188ZM0 26.7838V28.5498H22.468L23.766 26.7838H0ZM0 23.5038H26.181L24.88 25.2678H0V23.5038ZM0 31.8188H20.061L21.353 30.0628H0V31.8188ZM175.748 28.5488H152.072L153.372 26.7828H175.748V28.5488ZM149.667 31.8188H175.748V30.0628H150.958L149.667 31.8188ZM154.486 25.2698L155.783 23.5038H175.748V25.2698H154.486ZM134.659 21.6218L145.448 6.96484H128.367C128.361 6.96484 117.57 21.6218 117.57 21.6218H134.659ZM114.435 25.8908C115.008 25.1148 116.187 23.5038 116.187 23.5038V23.5048H152.831L146.712 31.8188H120.811C114.201 31.8188 112.41 28.6268 114.435 25.8908Z" fill="#D50029"/>
</svg>
