<svg width="32" height="32" viewBox="0 0 32 32" fill="none" xmlns="http://www.w3.org/2000/svg">
<path fill-rule="evenodd" clip-rule="evenodd" d="M3.25879 9.88677V6.11344C3.25879 5.6321 3.51879 5.1881 3.93879 4.95077L7.34679 3.03477C7.75212 2.80677 8.24812 2.80677 8.65479 3.03477L12.0628 4.9521C12.4828 5.1881 12.7428 5.6321 12.7428 6.11477V9.8881C12.7428 10.3694 12.4828 10.8134 12.0628 11.0508L8.65346 12.9654C8.24812 13.1934 7.75212 13.1934 7.34546 12.9654L3.93879 11.0494C3.51879 10.8134 3.25879 10.3681 3.25879 9.88677Z" stroke="white" stroke-width="1.5" stroke-linecap="round" stroke-linejoin="round"/>
<path d="M8.00016 8V13.1333" stroke="white" stroke-width="1.5" stroke-linecap="round" stroke-linejoin="round"/>
<path d="M8 7.99994L12.56 5.43994" stroke="white" stroke-width="1.5" stroke-linecap="round" stroke-linejoin="round"/>
<path d="M7.99994 7.99994L3.43994 5.43994" stroke="white" stroke-width="1.5" stroke-linecap="round" stroke-linejoin="round"/>
<path d="M19.2532 7.99967H12.7466" stroke="white" stroke-width="1.5" stroke-linecap="round" stroke-linejoin="round"/>
<path fill-rule="evenodd" clip-rule="evenodd" d="M19.2583 9.88664V6.1133C19.2583 5.63197 19.5183 5.18797 19.9383 4.95064L23.3463 3.0333C23.7516 2.8053 24.2476 2.8053 24.6543 3.0333L28.0623 4.95064C28.4823 5.18664 28.7423 5.63064 28.7423 6.1133V9.88664C28.7423 10.368 28.4823 10.812 28.0623 11.0493L24.653 12.9653C24.2476 13.1933 23.7516 13.1933 23.345 12.9653L19.937 11.048C19.5183 10.8133 19.2583 10.368 19.2583 9.88664H19.2583Z" stroke="white" stroke-width="1.5" stroke-linecap="round" stroke-linejoin="round"/>
<path d="M23.9997 8V13.1333" stroke="white" stroke-width="1.5" stroke-linecap="round" stroke-linejoin="round"/>
<path d="M24 7.99994L28.56 5.43994" stroke="white" stroke-width="1.5" stroke-linecap="round" stroke-linejoin="round"/>
<path d="M23.9999 7.99994L19.4399 5.43994" stroke="white" stroke-width="1.5" stroke-linecap="round" stroke-linejoin="round"/>
<path fill-rule="evenodd" clip-rule="evenodd" d="M3.2583 25.8866V22.1133C3.2583 21.632 3.5183 21.188 3.9383 20.9506L7.3463 19.0333C7.75163 18.8053 8.24763 18.8053 8.6543 19.0333L12.0623 20.9506C12.4823 21.1866 12.7423 21.6306 12.7423 22.1133V25.8866C12.7423 26.368 12.4823 26.812 12.0623 27.0493L8.65297 28.9653C8.24763 29.1933 7.75163 29.1933 7.34497 28.9653L3.93697 27.048C3.5183 26.8133 3.2583 26.368 3.2583 25.8866H3.2583Z" stroke="white" stroke-width="1.5" stroke-linecap="round" stroke-linejoin="round"/>
<path d="M7.99967 24V29.1333" stroke="white" stroke-width="1.5" stroke-linecap="round" stroke-linejoin="round"/>
<path d="M8 23.9999L12.56 21.4399" stroke="white" stroke-width="1.5" stroke-linecap="round" stroke-linejoin="round"/>
<path d="M7.99994 23.9999L3.43994 21.4399" stroke="white" stroke-width="1.5" stroke-linecap="round" stroke-linejoin="round"/>
<path d="M19.2532 23.9997H12.7466" stroke="white" stroke-width="1.5" stroke-linecap="round" stroke-linejoin="round"/>
<path d="M23.9997 18.8666V13.1333" stroke="white" stroke-width="1.5" stroke-linecap="round" stroke-linejoin="round"/>
<path d="M7.99967 18.8666V13.1333" stroke="white" stroke-width="1.5" stroke-linecap="round" stroke-linejoin="round"/>
<path fill-rule="evenodd" clip-rule="evenodd" d="M19.2583 25.8866V22.1133C19.2583 21.632 19.5183 21.188 19.9383 20.9506L23.3463 19.0333C23.7516 18.8053 24.2476 18.8053 24.6543 19.0333L28.0623 20.9506C28.4823 21.1866 28.7423 21.6306 28.7423 22.1133V25.8866C28.7423 26.368 28.4823 26.812 28.0623 27.0493L24.6543 28.9666C24.249 29.1946 23.753 29.1946 23.3463 28.9666L19.9383 27.0493C19.5183 26.8133 19.2583 26.368 19.2583 25.8866Z" stroke="white" stroke-width="1.5" stroke-linecap="round" stroke-linejoin="round"/>
<path d="M23.9997 24V29.1333" stroke="white" stroke-width="1.5" stroke-linecap="round" stroke-linejoin="round"/>
<path d="M24 23.9999L28.56 21.4399" stroke="white" stroke-width="1.5" stroke-linecap="round" stroke-linejoin="round"/>
<path d="M23.9999 23.9999L19.4399 21.4399" stroke="white" stroke-width="1.5" stroke-linecap="round" stroke-linejoin="round"/>
</svg>
