<svg width="32" height="32" viewBox="0 0 32 32" fill="none" xmlns="http://www.w3.org/2000/svg">
<path fill-rule="evenodd" clip-rule="evenodd" d="M26.6668 9.33333H14.6668C13.9308 9.33333 13.3335 8.736 13.3335 8V5.33333C13.3335 4.59733 13.9308 4 14.6668 4H26.6668C27.4028 4 28.0002 4.59733 28.0002 5.33333V8C28.0002 8.736 27.4028 9.33333 26.6668 9.33333Z" stroke="white" stroke-width="1.5" stroke-linecap="round" stroke-linejoin="round"/>
<path fill-rule="evenodd" clip-rule="evenodd" d="M26.6668 18.6668H14.6668C13.9308 18.6668 13.3335 18.0695 13.3335 17.3335V14.6668C13.3335 13.9308 13.9308 13.3335 14.6668 13.3335H26.6668C27.4028 13.3335 28.0002 13.9308 28.0002 14.6668V17.3335C28.0002 18.0695 27.4028 18.6668 26.6668 18.6668Z" stroke="white" stroke-width="1.5" stroke-linecap="round" stroke-linejoin="round"/>
<path fill-rule="evenodd" clip-rule="evenodd" d="M26.6668 27.9998H14.6668C13.9308 27.9998 13.3335 27.4025 13.3335 26.6665V23.9998C13.3335 23.2638 13.9308 22.6665 14.6668 22.6665H26.6668C27.4028 22.6665 28.0002 23.2638 28.0002 23.9998V26.6665C28.0002 27.4025 27.4028 27.9998 26.6668 27.9998Z" stroke="white" stroke-width="1.5" stroke-linecap="round" stroke-linejoin="round"/>
<path fill-rule="evenodd" clip-rule="evenodd" d="M8 9.33333H5.33333C4.59733 9.33333 4 8.736 4 8V5.33333C4 4.59733 4.59733 4 5.33333 4H8C8.736 4 9.33333 4.59733 9.33333 5.33333V8C9.33333 8.736 8.736 9.33333 8 9.33333Z" stroke="white" stroke-width="1.5" stroke-linecap="round" stroke-linejoin="round"/>
<path fill-rule="evenodd" clip-rule="evenodd" d="M8 18.6668H5.33333C4.59733 18.6668 4 18.0695 4 17.3335V14.6668C4 13.9308 4.59733 13.3335 5.33333 13.3335H8C8.736 13.3335 9.33333 13.9308 9.33333 14.6668V17.3335C9.33333 18.0695 8.736 18.6668 8 18.6668Z" stroke="white" stroke-width="1.5" stroke-linecap="round" stroke-linejoin="round"/>
<path fill-rule="evenodd" clip-rule="evenodd" d="M8 27.9998H5.33333C4.59733 27.9998 4 27.4025 4 26.6665V23.9998C4 23.2638 4.59733 22.6665 5.33333 22.6665H8C8.736 22.6665 9.33333 23.2638 9.33333 23.9998V26.6665C9.33333 27.4025 8.736 27.9998 8 27.9998Z" stroke="white" stroke-width="1.5" stroke-linecap="round" stroke-linejoin="round"/>
</svg>
