<svg width="327" height="204" viewBox="0 0 327 204" fill="none" xmlns="http://www.w3.org/2000/svg">
<g clip-path="url(#clip0_0_94)">
<g filter="url(#filter0_d_0_94)">
<path d="M20 91C20 85.4772 24.4772 81 30 81H89C94.5229 81 99 85.4772 99 91V168H20V91Z" fill="#132739"/>
</g>
<g filter="url(#filter1_d_0_94)">
<path d="M226 10C226 4.47715 230.477 0 236 0H295C300.523 0 305 4.47715 305 10V168H226V10Z" fill="#132739"/>
</g>
<rect y="168" width="327" height="1" rx="0.5" fill="black"/>
<g filter="url(#filter2_d_0_94)">
<path d="M123 65C123 59.4771 127.477 55 133 55H192C197.523 55 202 59.4772 202 65V168H123V65Z" fill="#132739"/>
</g>
<g filter="url(#filter3_d_0_94)">
<path d="M123 64C123 58.4772 127.477 54 133 54H192C197.523 54 202 58.4772 202 64V81H123V64Z" fill="#3CC8AE"/>
</g>
<g filter="url(#filter4_d_0_94)">
<path d="M226 10C226 4.47715 230.477 0 236 0H295C300.523 0 305 4.47715 305 10V82H226V10Z" fill="#3CC8AE"/>
</g>
<path opacity="0.7" d="M50.418 200H43.2476V198.777L46.7998 194.902C47.3125 194.331 47.6763 193.855 47.8911 193.474C48.1108 193.088 48.2207 192.703 48.2207 192.317C48.2207 191.809 48.0767 191.399 47.7886 191.086C47.5054 190.774 47.1221 190.618 46.6387 190.618C46.0625 190.618 45.6157 190.793 45.2983 191.145C44.981 191.497 44.8223 191.978 44.8223 192.588H43.0425C43.0425 191.938 43.189 191.355 43.4819 190.837C43.7798 190.315 44.2021 189.91 44.749 189.622C45.3008 189.333 45.9355 189.189 46.6533 189.189C47.6885 189.189 48.5039 189.451 49.0996 189.973C49.7002 190.491 50.0005 191.208 50.0005 192.126C50.0005 192.659 49.8491 193.218 49.5464 193.804C49.2485 194.385 48.7578 195.046 48.0742 195.789L45.4668 198.579H50.418V200ZM58.7236 195.51C58.7236 197.043 58.4355 198.201 57.8594 198.982C57.2881 199.758 56.4165 200.146 55.2446 200.146C54.0923 200.146 53.2231 199.768 52.6372 199.011C52.0562 198.25 51.7583 197.124 51.7437 195.635V193.789C51.7437 192.256 52.0293 191.106 52.6006 190.339C53.1768 189.573 54.0532 189.189 55.23 189.189C56.397 189.189 57.2661 189.563 57.8374 190.31C58.4136 191.057 58.709 192.175 58.7236 193.665V195.51ZM56.9438 193.518C56.9438 192.517 56.8071 191.785 56.5337 191.321C56.2603 190.852 55.8257 190.618 55.23 190.618C54.6489 190.618 54.2217 190.84 53.9482 191.284C53.6748 191.724 53.5308 192.412 53.5161 193.35V195.767C53.5161 196.763 53.6553 197.505 53.9336 197.993C54.2119 198.481 54.6489 198.726 55.2446 198.726C55.8159 198.726 56.2383 198.501 56.5117 198.052C56.7852 197.598 56.9292 196.89 56.9438 195.928V193.518ZM65.1177 200H63.3452V191.438L60.7305 192.332V190.83L64.8906 189.299H65.1177V200ZM74.3608 189.285V190.757H74.1411C73.145 190.771 72.3491 191.045 71.7534 191.577C71.1577 192.109 70.8037 192.864 70.6914 193.84C71.2627 193.24 71.9927 192.939 72.8813 192.939C73.8237 192.939 74.5659 193.271 75.1079 193.936C75.6548 194.6 75.9282 195.457 75.9282 196.506C75.9282 197.59 75.6084 198.469 74.9688 199.143C74.334 199.812 73.499 200.146 72.4639 200.146C71.3994 200.146 70.5352 199.753 69.8711 198.967C69.2119 198.181 68.8823 197.151 68.8823 195.876V195.269C68.8823 193.398 69.3364 191.934 70.2446 190.874C71.1577 189.814 72.4688 189.285 74.1777 189.285H74.3608ZM72.4492 194.375C72.0586 194.375 71.6997 194.485 71.3726 194.705C71.0503 194.924 70.8135 195.217 70.6621 195.583V196.125C70.6621 196.917 70.8281 197.546 71.1602 198.015C71.4922 198.479 71.9219 198.711 72.4492 198.711C72.9766 198.711 73.394 198.513 73.7017 198.118C74.0093 197.722 74.1631 197.202 74.1631 196.558C74.1631 195.913 74.0068 195.388 73.6943 194.983C73.3818 194.578 72.9668 194.375 72.4492 194.375Z" fill="black"/>
<path d="M41.5475 120.325L37.2848 130H35.4171L39.6725 120.764H34.1573V119.336H41.5475V120.325ZM43.8988 128.125C44.2309 128.125 44.4872 128.22 44.6679 128.411C44.8485 128.596 44.9389 128.831 44.9389 129.114C44.9389 129.392 44.8485 129.624 44.6679 129.81C44.4872 129.99 44.2309 130.081 43.8988 130.081C43.5814 130.081 43.33 129.99 43.1444 129.81C42.9589 129.629 42.8661 129.397 42.8661 129.114C42.8661 128.831 42.9564 128.596 43.1371 128.411C43.3178 128.22 43.5717 128.125 43.8988 128.125ZM51.6115 125.54C51.0158 126.169 50.32 126.484 49.5241 126.484C48.5866 126.484 47.8396 126.157 47.2829 125.503C46.7263 124.844 46.4479 123.979 46.4479 122.91C46.4479 122.207 46.5896 121.57 46.8728 120.999C47.156 120.427 47.5588 119.983 48.0812 119.666C48.6037 119.348 49.2092 119.189 49.8977 119.189C50.9719 119.189 51.8239 119.59 52.4538 120.391C53.0837 121.191 53.3986 122.263 53.3986 123.606V124.104C53.3986 126.028 52.9641 127.495 52.0949 128.506C51.2258 129.517 49.9294 130.029 48.2058 130.044H47.9934V128.572H48.2497C49.2995 128.557 50.1052 128.306 50.6667 127.817C51.2282 127.324 51.5432 126.565 51.6115 125.54ZM49.8977 125.093C50.2541 125.093 50.5886 124.99 50.9011 124.785C51.2136 124.58 51.4553 124.297 51.6262 123.936V123.24C51.6262 122.454 51.465 121.821 51.1428 121.343C50.8205 120.864 50.403 120.625 49.8903 120.625C49.3776 120.625 48.9675 120.837 48.6599 121.262C48.3571 121.682 48.2058 122.214 48.2058 122.859C48.2058 123.528 48.3596 124.067 48.6672 124.478C48.9748 124.888 49.385 125.093 49.8977 125.093ZM63.0452 127.81L65.389 122.075H67.6155V130H65.8357V124.756L63.6531 130H62.4446L60.2547 124.727V130H58.4749V122.075H60.7161L63.0452 127.81ZM76.0533 122.075V130H74.2735V123.511H72.0323L71.8858 126.272C71.7931 127.6 71.5367 128.555 71.1168 129.136C70.7018 129.712 70.0646 130 69.2052 130H68.6559L68.6485 128.521L69.0147 128.484C69.4054 128.43 69.6886 128.193 69.8644 127.773C70.045 127.349 70.1598 126.577 70.2086 125.459L70.3551 122.075H76.0533ZM84.3593 130H82.5795V126.799H79.496V130H77.7162V122.075H79.496V125.378H82.5795V122.075H84.3593V130Z" fill="white"/>
<path d="M144.667 122.148C144.667 122.671 144.532 123.137 144.264 123.547C143.995 123.953 143.629 124.272 143.165 124.507C143.722 124.766 144.149 125.12 144.447 125.569C144.75 126.018 144.901 126.526 144.901 127.092C144.901 128.03 144.584 128.774 143.949 129.326C143.314 129.873 142.469 130.146 141.415 130.146C140.355 130.146 139.505 129.871 138.866 129.319C138.231 128.767 137.914 128.025 137.914 127.092C137.914 126.521 138.065 126.008 138.368 125.554C138.671 125.1 139.095 124.751 139.642 124.507C139.183 124.272 138.819 123.953 138.551 123.547C138.287 123.137 138.155 122.671 138.155 122.148C138.155 121.24 138.448 120.52 139.034 119.988C139.62 119.456 140.411 119.189 141.407 119.189C142.408 119.189 143.202 119.456 143.788 119.988C144.374 120.52 144.667 121.24 144.667 122.148ZM143.121 127.004C143.121 126.477 142.962 126.052 142.645 125.73C142.333 125.403 141.918 125.239 141.4 125.239C140.882 125.239 140.467 125.4 140.155 125.723C139.847 126.045 139.693 126.472 139.693 127.004C139.693 127.527 139.845 127.944 140.148 128.257C140.455 128.569 140.878 128.726 141.415 128.726C141.952 128.726 142.369 128.574 142.667 128.271C142.97 127.969 143.121 127.546 143.121 127.004ZM142.894 122.214C142.894 121.75 142.76 121.37 142.491 121.072C142.223 120.769 141.861 120.618 141.407 120.618C140.953 120.618 140.594 120.762 140.331 121.05C140.067 121.333 139.935 121.721 139.935 122.214C139.935 122.703 140.067 123.091 140.331 123.379C140.599 123.667 140.961 123.811 141.415 123.811C141.869 123.811 142.228 123.667 142.491 123.379C142.76 123.091 142.894 122.703 142.894 122.214ZM147.399 128.125C147.731 128.125 147.987 128.22 148.168 128.411C148.349 128.596 148.439 128.831 148.439 129.114C148.439 129.392 148.349 129.624 148.168 129.81C147.987 129.99 147.731 130.081 147.399 130.081C147.081 130.081 146.83 129.99 146.644 129.81C146.459 129.629 146.366 129.397 146.366 129.114C146.366 128.831 146.456 128.596 146.637 128.411C146.818 128.22 147.072 128.125 147.399 128.125ZM150.541 124.712L151.12 119.336H156.847V120.874H152.599L152.306 123.423C152.8 123.14 153.356 122.998 153.976 122.998C154.992 122.998 155.78 123.323 156.342 123.972C156.908 124.622 157.192 125.496 157.192 126.594C157.192 127.678 156.879 128.542 156.254 129.187C155.629 129.827 154.772 130.146 153.683 130.146C152.707 130.146 151.896 129.871 151.252 129.319C150.612 128.762 150.265 128.03 150.212 127.122H151.933C152.001 127.639 152.187 128.037 152.489 128.315C152.792 128.589 153.188 128.726 153.676 128.726C154.223 128.726 154.648 128.53 154.95 128.14C155.258 127.749 155.412 127.217 155.412 126.543C155.412 125.894 155.243 125.381 154.906 125.005C154.57 124.624 154.106 124.434 153.515 124.434C153.193 124.434 152.919 124.478 152.695 124.565C152.47 124.648 152.226 124.814 151.962 125.063L150.541 124.712ZM166.545 127.81L168.889 122.075H171.116V130H169.336V124.756L167.153 130H165.945L163.755 124.727V130H161.975V122.075H164.216L166.545 127.81ZM179.553 122.075V130H177.774V123.511H175.532L175.386 126.272C175.293 127.6 175.037 128.555 174.617 129.136C174.202 129.712 173.565 130 172.705 130H172.156L172.149 128.521L172.515 128.484C172.905 128.43 173.189 128.193 173.364 127.773C173.545 127.349 173.66 126.577 173.709 125.459L173.855 122.075H179.553ZM187.859 130H186.079V126.799H182.996V130H181.216V122.075H182.996V125.378H186.079V122.075H187.859V130Z" fill="white"/>
<path d="M153.872 66.1333H156.655V67.7593H153.872V70.9307H152.143V67.7593H149.345V66.1333H152.143V63.167H153.872V66.1333ZM164.426 64.1484C164.426 64.6709 164.292 65.1372 164.023 65.5474C163.755 65.9526 163.389 66.2725 162.925 66.5068C163.481 66.7656 163.909 67.1196 164.207 67.5688C164.509 68.0181 164.661 68.5259 164.661 69.0923C164.661 70.0298 164.343 70.7744 163.708 71.3262C163.074 71.873 162.229 72.1465 161.174 72.1465C160.115 72.1465 159.265 71.8706 158.625 71.3188C157.991 70.7671 157.673 70.0249 157.673 69.0923C157.673 68.521 157.825 68.0083 158.127 67.5542C158.43 67.1001 158.855 66.751 159.402 66.5068C158.943 66.2725 158.579 65.9526 158.311 65.5474C158.047 65.1372 157.915 64.6709 157.915 64.1484C157.915 63.2402 158.208 62.52 158.794 61.9878C159.38 61.4556 160.171 61.1895 161.167 61.1895C162.168 61.1895 162.961 61.4556 163.547 61.9878C164.133 62.52 164.426 63.2402 164.426 64.1484ZM162.881 69.0044C162.881 68.4771 162.722 68.0522 162.405 67.73C162.092 67.4028 161.677 67.2393 161.16 67.2393C160.642 67.2393 160.227 67.4004 159.915 67.7227C159.607 68.0449 159.453 68.4722 159.453 69.0044C159.453 69.5269 159.604 69.9443 159.907 70.2568C160.215 70.5693 160.637 70.7256 161.174 70.7256C161.711 70.7256 162.129 70.5742 162.427 70.2715C162.729 69.9688 162.881 69.5464 162.881 69.0044ZM162.654 64.2144C162.654 63.7505 162.52 63.3696 162.251 63.0718C161.982 62.769 161.621 62.6177 161.167 62.6177C160.713 62.6177 160.354 62.7617 160.09 63.0498C159.827 63.333 159.695 63.7212 159.695 64.2144C159.695 64.7026 159.827 65.0908 160.09 65.3789C160.359 65.667 160.72 65.811 161.174 65.811C161.628 65.811 161.987 65.667 162.251 65.3789C162.52 65.0908 162.654 64.7026 162.654 64.2144ZM165.862 63.3867C165.862 62.7422 166.07 62.2148 166.485 61.8047C166.9 61.3896 167.444 61.1821 168.118 61.1821C168.802 61.1821 169.348 61.3896 169.759 61.8047C170.174 62.2148 170.381 62.7544 170.381 63.4233V63.9507C170.381 64.5903 170.174 65.1152 169.759 65.5254C169.348 65.9355 168.806 66.1406 168.133 66.1406C167.473 66.1406 166.929 65.9404 166.499 65.54C166.075 65.1348 165.862 64.5903 165.862 63.9067V63.3867ZM167.107 63.9507C167.107 64.2876 167.2 64.561 167.386 64.771C167.576 64.9761 167.825 65.0786 168.133 65.0786C168.435 65.0786 168.679 64.9761 168.865 64.771C169.051 64.561 169.143 64.2778 169.143 63.9214V63.3867C169.143 63.0498 169.048 62.7764 168.858 62.5664C168.672 62.3564 168.426 62.2515 168.118 62.2515C167.81 62.2515 167.564 62.3589 167.378 62.5737C167.198 62.7837 167.107 63.062 167.107 63.4087V63.9507ZM170.989 69.3853C170.989 68.731 171.201 68.2012 171.626 67.7959C172.051 67.3906 172.593 67.188 173.252 67.188C173.916 67.188 174.458 67.3906 174.878 67.7959C175.303 68.2012 175.515 68.748 175.515 69.4365V69.9565C175.515 70.5913 175.31 71.1162 174.9 71.5312C174.495 71.9414 173.95 72.1465 173.267 72.1465C172.583 72.1465 172.032 71.9438 171.612 71.5386C171.197 71.1284 170.989 70.5889 170.989 69.9199V69.3853ZM172.234 69.9565C172.234 70.2886 172.329 70.562 172.52 70.7769C172.715 70.9868 172.964 71.0918 173.267 71.0918C173.579 71.0918 173.824 70.9917 173.999 70.7915C174.18 70.5864 174.27 70.3008 174.27 69.9346V69.3853C174.27 69.0435 174.175 68.77 173.985 68.5649C173.794 68.3599 173.55 68.2573 173.252 68.2573C172.95 68.2573 172.703 68.3599 172.513 68.5649C172.327 68.77 172.234 69.0532 172.234 69.4146V69.9565ZM168.499 71.2017L167.583 70.6743L172.791 62.3394L173.706 62.8667L168.499 71.2017Z" fill="white"/>
<path d="M241.657 130H239.884V121.438L237.27 122.332V120.83L241.43 119.299H241.657V130ZM252.233 130H245.063V128.777L248.615 124.902C249.128 124.331 249.492 123.855 249.707 123.474C249.926 123.088 250.036 122.703 250.036 122.317C250.036 121.809 249.892 121.399 249.604 121.086C249.321 120.774 248.937 120.618 248.454 120.618C247.878 120.618 247.431 120.793 247.114 121.145C246.796 121.497 246.638 121.978 246.638 122.588H244.858C244.858 121.938 245.004 121.355 245.297 120.837C245.595 120.315 246.018 119.91 246.564 119.622C247.116 119.333 247.751 119.189 248.469 119.189C249.504 119.189 250.319 119.451 250.915 119.973C251.516 120.491 251.816 121.208 251.816 122.126C251.816 122.659 251.665 123.218 251.362 123.804C251.064 124.385 250.573 125.046 249.89 125.789L247.282 128.579H252.233V130ZM254.512 128.125C254.844 128.125 255.1 128.22 255.281 128.411C255.461 128.596 255.552 128.831 255.552 129.114C255.552 129.392 255.461 129.624 255.281 129.81C255.1 129.99 254.844 130.081 254.512 130.081C254.194 130.081 253.943 129.99 253.757 129.81C253.572 129.629 253.479 129.397 253.479 129.114C253.479 128.831 253.569 128.596 253.75 128.411C253.93 128.22 254.184 128.125 254.512 128.125ZM264.348 130H257.178V128.777L260.73 124.902C261.243 124.331 261.607 123.855 261.821 123.474C262.041 123.088 262.151 122.703 262.151 122.317C262.151 121.809 262.007 121.399 261.719 121.086C261.436 120.774 261.052 120.618 260.569 120.618C259.993 120.618 259.546 120.793 259.229 121.145C258.911 121.497 258.753 121.978 258.753 122.588H256.973C256.973 121.938 257.119 121.355 257.412 120.837C257.71 120.315 258.132 119.91 258.679 119.622C259.231 119.333 259.866 119.189 260.584 119.189C261.619 119.189 262.434 119.451 263.03 119.973C263.63 120.491 263.931 121.208 263.931 122.126C263.931 122.659 263.779 123.218 263.477 123.804C263.179 124.385 262.688 125.046 262.004 125.789L259.397 128.579H264.348V130ZM273.658 127.81L276.002 122.075H278.228V130H276.448V124.756L274.266 130H273.057L270.867 124.727V130H269.088V122.075H271.329L273.658 127.81ZM286.666 122.075V130H284.886V123.511H282.645L282.499 126.272C282.406 127.6 282.149 128.555 281.729 129.136C281.314 129.712 280.677 130 279.818 130H279.269L279.261 128.521L279.627 128.484C280.018 128.43 280.301 128.193 280.477 127.773C280.658 127.349 280.772 126.577 280.821 125.459L280.968 122.075H286.666ZM294.972 130H293.192V126.799H290.109V130H288.329V122.075H290.109V125.378H293.192V122.075H294.972V130Z" fill="white"/>
<path d="M253.259 37.1333H256.042V38.7593H253.259V41.9307H251.531V38.7593H248.733V37.1333H251.531V34.167H253.259V37.1333ZM263.118 39.1987H264.443V40.627H263.118V43H261.338V40.627H256.731L256.68 39.543L261.279 32.3359H263.118V39.1987ZM258.547 39.1987H261.338V34.7456L261.206 34.98L258.547 39.1987ZM271.343 39.1987H272.669V40.627H271.343V43H269.563V40.627H264.956L264.905 39.543L269.505 32.3359H271.343V39.1987ZM266.773 39.1987H269.563V34.7456L269.432 34.98L266.773 39.1987ZM273.475 34.3867C273.475 33.7422 273.682 33.2148 274.097 32.8047C274.512 32.3896 275.057 32.1821 275.731 32.1821C276.414 32.1821 276.961 32.3896 277.371 32.8047C277.786 33.2148 277.994 33.7544 277.994 34.4233V34.9507C277.994 35.5903 277.786 36.1152 277.371 36.5254C276.961 36.9355 276.419 37.1406 275.745 37.1406C275.086 37.1406 274.542 36.9404 274.112 36.54C273.687 36.1348 273.475 35.5903 273.475 34.9067V34.3867ZM274.72 34.9507C274.72 35.2876 274.813 35.561 274.998 35.771C275.189 35.9761 275.438 36.0786 275.745 36.0786C276.048 36.0786 276.292 35.9761 276.478 35.771C276.663 35.561 276.756 35.2778 276.756 34.9214V34.3867C276.756 34.0498 276.661 33.7764 276.47 33.5664C276.285 33.3564 276.038 33.2515 275.731 33.2515C275.423 33.2515 275.176 33.3589 274.991 33.5737C274.81 33.7837 274.72 34.062 274.72 34.4087V34.9507ZM278.602 40.3853C278.602 39.731 278.814 39.2012 279.239 38.7959C279.664 38.3906 280.206 38.188 280.865 38.188C281.529 38.188 282.071 38.3906 282.491 38.7959C282.916 39.2012 283.128 39.748 283.128 40.4365V40.9565C283.128 41.5913 282.923 42.1162 282.513 42.5312C282.108 42.9414 281.563 43.1465 280.88 43.1465C280.196 43.1465 279.644 42.9438 279.224 42.5386C278.809 42.1284 278.602 41.5889 278.602 40.9199V40.3853ZM279.847 40.9565C279.847 41.2886 279.942 41.562 280.133 41.7769C280.328 41.9868 280.577 42.0918 280.88 42.0918C281.192 42.0918 281.436 41.9917 281.612 41.7915C281.793 41.5864 281.883 41.3008 281.883 40.9346V40.3853C281.883 40.0435 281.788 39.77 281.597 39.5649C281.407 39.3599 281.163 39.2573 280.865 39.2573C280.562 39.2573 280.316 39.3599 280.125 39.5649C279.94 39.77 279.847 40.0532 279.847 40.4146V40.9565ZM276.112 42.2017L275.196 41.6743L280.404 33.3394L281.319 33.8667L276.112 42.2017Z" fill="white"/>
<path opacity="0.7" d="M153.418 200H146.248V198.777L149.8 194.902C150.312 194.331 150.676 193.855 150.891 193.474C151.111 193.088 151.221 192.703 151.221 192.317C151.221 191.809 151.077 191.399 150.789 191.086C150.505 190.774 150.122 190.618 149.639 190.618C149.062 190.618 148.616 190.793 148.298 191.145C147.981 191.497 147.822 191.978 147.822 192.588H146.042C146.042 191.938 146.189 191.355 146.482 190.837C146.78 190.315 147.202 189.91 147.749 189.622C148.301 189.333 148.936 189.189 149.653 189.189C150.688 189.189 151.504 189.451 152.1 189.973C152.7 190.491 153 191.208 153 192.126C153 192.659 152.849 193.218 152.546 193.804C152.249 194.385 151.758 195.046 151.074 195.789L148.467 198.579H153.418V200ZM161.724 195.51C161.724 197.043 161.436 198.201 160.859 198.982C160.288 199.758 159.417 200.146 158.245 200.146C157.092 200.146 156.223 199.768 155.637 199.011C155.056 198.25 154.758 197.124 154.744 195.635V193.789C154.744 192.256 155.029 191.106 155.601 190.339C156.177 189.573 157.053 189.189 158.23 189.189C159.397 189.189 160.266 189.563 160.837 190.31C161.414 191.057 161.709 192.175 161.724 193.665V195.51ZM159.944 193.518C159.944 192.517 159.807 191.785 159.534 191.321C159.26 190.852 158.826 190.618 158.23 190.618C157.649 190.618 157.222 190.84 156.948 191.284C156.675 191.724 156.531 192.412 156.516 193.35V195.767C156.516 196.763 156.655 197.505 156.934 197.993C157.212 198.481 157.649 198.726 158.245 198.726C158.816 198.726 159.238 198.501 159.512 198.052C159.785 197.598 159.929 196.89 159.944 195.928V193.518ZM168.118 200H166.345V191.438L163.73 192.332V190.83L167.891 189.299H168.118V200ZM178.921 190.325L174.658 200H172.791L177.046 190.764H171.531V189.336H178.921V190.325Z" fill="black"/>
<path opacity="0.7" d="M257.418 200H250.248V198.777L253.8 194.902C254.312 194.331 254.676 193.855 254.891 193.474C255.111 193.088 255.221 192.703 255.221 192.317C255.221 191.809 255.077 191.399 254.789 191.086C254.505 190.774 254.122 190.618 253.639 190.618C253.062 190.618 252.616 190.793 252.298 191.145C251.981 191.497 251.822 191.978 251.822 192.588H250.042C250.042 191.938 250.189 191.355 250.482 190.837C250.78 190.315 251.202 189.91 251.749 189.622C252.301 189.333 252.936 189.189 253.653 189.189C254.688 189.189 255.504 189.451 256.1 189.973C256.7 190.491 257 191.208 257 192.126C257 192.659 256.849 193.218 256.546 193.804C256.249 194.385 255.758 195.046 255.074 195.789L252.467 198.579H257.418V200ZM265.724 195.51C265.724 197.043 265.436 198.201 264.859 198.982C264.288 199.758 263.417 200.146 262.245 200.146C261.092 200.146 260.223 199.768 259.637 199.011C259.056 198.25 258.758 197.124 258.744 195.635V193.789C258.744 192.256 259.029 191.106 259.601 190.339C260.177 189.573 261.053 189.189 262.23 189.189C263.397 189.189 264.266 189.563 264.837 190.31C265.414 191.057 265.709 192.175 265.724 193.665V195.51ZM263.944 193.518C263.944 192.517 263.807 191.785 263.534 191.321C263.26 190.852 262.826 190.618 262.23 190.618C261.649 190.618 261.222 190.84 260.948 191.284C260.675 191.724 260.531 192.412 260.516 193.35V195.767C260.516 196.763 260.655 197.505 260.934 197.993C261.212 198.481 261.649 198.726 262.245 198.726C262.816 198.726 263.238 198.501 263.512 198.052C263.785 197.598 263.929 196.89 263.944 195.928V193.518ZM272.118 200H270.345V191.438L267.73 192.332V190.83L271.891 189.299H272.118V200ZM282.54 192.148C282.54 192.671 282.406 193.137 282.137 193.547C281.869 193.953 281.502 194.272 281.039 194.507C281.595 194.766 282.022 195.12 282.32 195.569C282.623 196.018 282.774 196.526 282.774 197.092C282.774 198.03 282.457 198.774 281.822 199.326C281.188 199.873 280.343 200.146 279.288 200.146C278.229 200.146 277.379 199.871 276.739 199.319C276.104 198.767 275.787 198.025 275.787 197.092C275.787 196.521 275.938 196.008 276.241 195.554C276.544 195.1 276.969 194.751 277.516 194.507C277.057 194.272 276.693 193.953 276.424 193.547C276.161 193.137 276.029 192.671 276.029 192.148C276.029 191.24 276.322 190.52 276.908 189.988C277.494 189.456 278.285 189.189 279.281 189.189C280.282 189.189 281.075 189.456 281.661 189.988C282.247 190.52 282.54 191.24 282.54 192.148ZM280.995 197.004C280.995 196.477 280.836 196.052 280.519 195.73C280.206 195.403 279.791 195.239 279.273 195.239C278.756 195.239 278.341 195.4 278.028 195.723C277.721 196.045 277.567 196.472 277.567 197.004C277.567 197.527 277.718 197.944 278.021 198.257C278.329 198.569 278.751 198.726 279.288 198.726C279.825 198.726 280.243 198.574 280.541 198.271C280.843 197.969 280.995 197.546 280.995 197.004ZM280.768 192.214C280.768 191.75 280.633 191.37 280.365 191.072C280.096 190.769 279.735 190.618 279.281 190.618C278.827 190.618 278.468 190.762 278.204 191.05C277.94 191.333 277.809 191.721 277.809 192.214C277.809 192.703 277.94 193.091 278.204 193.379C278.473 193.667 278.834 193.811 279.288 193.811C279.742 193.811 280.101 193.667 280.365 193.379C280.633 193.091 280.768 192.703 280.768 192.214Z" fill="black"/>
</g>
<defs>
<filter id="filter0_d_0_94" x="9" y="66" width="101" height="109" filterUnits="userSpaceOnUse" color-interpolation-filters="sRGB">
<feFlood flood-opacity="0" result="BackgroundImageFix"/>
<feColorMatrix in="SourceAlpha" type="matrix" values="0 0 0 0 0 0 0 0 0 0 0 0 0 0 0 0 0 0 127 0" result="hardAlpha"/>
<feOffset dy="-4"/>
<feGaussianBlur stdDeviation="5.5"/>
<feColorMatrix type="matrix" values="0 0 0 0 0.101961 0 0 0 0 0.266667 0 0 0 0 0.443137 0 0 0 0.100005 0"/>
<feBlend mode="normal" in2="BackgroundImageFix" result="effect1_dropShadow_0_94"/>
<feBlend mode="normal" in="SourceGraphic" in2="effect1_dropShadow_0_94" result="shape"/>
</filter>
<filter id="filter1_d_0_94" x="215" y="-15" width="101" height="190" filterUnits="userSpaceOnUse" color-interpolation-filters="sRGB">
<feFlood flood-opacity="0" result="BackgroundImageFix"/>
<feColorMatrix in="SourceAlpha" type="matrix" values="0 0 0 0 0 0 0 0 0 0 0 0 0 0 0 0 0 0 127 0" result="hardAlpha"/>
<feOffset dy="-4"/>
<feGaussianBlur stdDeviation="5.5"/>
<feColorMatrix type="matrix" values="0 0 0 0 0.101961 0 0 0 0 0.266667 0 0 0 0 0.443137 0 0 0 0.100005 0"/>
<feBlend mode="normal" in2="BackgroundImageFix" result="effect1_dropShadow_0_94"/>
<feBlend mode="normal" in="SourceGraphic" in2="effect1_dropShadow_0_94" result="shape"/>
</filter>
<filter id="filter2_d_0_94" x="112" y="40" width="101" height="135" filterUnits="userSpaceOnUse" color-interpolation-filters="sRGB">
<feFlood flood-opacity="0" result="BackgroundImageFix"/>
<feColorMatrix in="SourceAlpha" type="matrix" values="0 0 0 0 0 0 0 0 0 0 0 0 0 0 0 0 0 0 127 0" result="hardAlpha"/>
<feOffset dy="-4"/>
<feGaussianBlur stdDeviation="5.5"/>
<feColorMatrix type="matrix" values="0 0 0 0 0.101961 0 0 0 0 0.266667 0 0 0 0 0.443137 0 0 0 0.100005 0"/>
<feBlend mode="normal" in2="BackgroundImageFix" result="effect1_dropShadow_0_94"/>
<feBlend mode="normal" in="SourceGraphic" in2="effect1_dropShadow_0_94" result="shape"/>
</filter>
<filter id="filter3_d_0_94" x="89" y="42" width="147" height="95" filterUnits="userSpaceOnUse" color-interpolation-filters="sRGB">
<feFlood flood-opacity="0" result="BackgroundImageFix"/>
<feColorMatrix in="SourceAlpha" type="matrix" values="0 0 0 0 0 0 0 0 0 0 0 0 0 0 0 0 0 0 127 0" result="hardAlpha"/>
<feOffset dy="22"/>
<feGaussianBlur stdDeviation="17"/>
<feColorMatrix type="matrix" values="0 0 0 0 0.235294 0 0 0 0 0.784314 0 0 0 0 0.682353 0 0 0 0.5 0"/>
<feBlend mode="normal" in2="BackgroundImageFix" result="effect1_dropShadow_0_94"/>
<feBlend mode="normal" in="SourceGraphic" in2="effect1_dropShadow_0_94" result="shape"/>
</filter>
<filter id="filter4_d_0_94" x="192" y="-12" width="147" height="150" filterUnits="userSpaceOnUse" color-interpolation-filters="sRGB">
<feFlood flood-opacity="0" result="BackgroundImageFix"/>
<feColorMatrix in="SourceAlpha" type="matrix" values="0 0 0 0 0 0 0 0 0 0 0 0 0 0 0 0 0 0 127 0" result="hardAlpha"/>
<feOffset dy="22"/>
<feGaussianBlur stdDeviation="17"/>
<feColorMatrix type="matrix" values="0 0 0 0 0.235294 0 0 0 0 0.784314 0 0 0 0 0.682353 0 0 0 0.5 0"/>
<feBlend mode="normal" in2="BackgroundImageFix" result="effect1_dropShadow_0_94"/>
<feBlend mode="normal" in="SourceGraphic" in2="effect1_dropShadow_0_94" result="shape"/>
</filter>
<clipPath id="clip0_0_94">
<rect width="327" height="204" fill="white"/>
</clipPath>
</defs>
</svg>
