<svg width="327" height="210" viewBox="0 0 327 210" fill="none" xmlns="http://www.w3.org/2000/svg">
<g clip-path="url(#clip0_0_77)">
<g filter="url(#filter0_d_0_77)">
<path d="M20 97C20 91.4772 24.4772 87 30 87H89C94.5229 87 99 91.4772 99 97V174H20V97Z" fill="#132739"/>
</g>
<rect y="174" width="327" height="1" rx="0.5" fill="black"/>
<g filter="url(#filter1_d_0_77)">
<path d="M226 10C226 4.47715 230.477 0 236 0H295C300.523 0 305 4.47715 305 10V174H226V10Z" fill="#132739"/>
</g>
<g filter="url(#filter2_d_0_77)">
<path d="M123 55C123 49.4771 127.477 45 133 45H192C197.523 45 202 49.4772 202 55V174H123V55Z" fill="#132739"/>
</g>
<g filter="url(#filter3_d_0_77)">
<path d="M123 55C123 49.4772 127.477 45 133 45H192C197.523 45 202 49.4772 202 55V88H123V55Z" fill="#3CC8AE"/>
</g>
<g filter="url(#filter4_d_0_77)">
<path d="M226 10C226 4.47715 230.477 0 236 0H295C300.523 0 305 4.47715 305 10V88H226V10Z" fill="#3CC8AE"/>
</g>
<path opacity="0.7" d="M50.418 206H43.2476V204.777L46.7998 200.902C47.3125 200.331 47.6763 199.855 47.8911 199.474C48.1108 199.088 48.2207 198.703 48.2207 198.317C48.2207 197.809 48.0767 197.399 47.7886 197.086C47.5054 196.774 47.1221 196.618 46.6387 196.618C46.0625 196.618 45.6157 196.793 45.2983 197.145C44.981 197.497 44.8223 197.978 44.8223 198.588H43.0425C43.0425 197.938 43.189 197.355 43.4819 196.837C43.7798 196.315 44.2021 195.91 44.749 195.622C45.3008 195.333 45.9355 195.189 46.6533 195.189C47.6885 195.189 48.5039 195.451 49.0996 195.973C49.7002 196.491 50.0005 197.208 50.0005 198.126C50.0005 198.659 49.8491 199.218 49.5464 199.804C49.2485 200.385 48.7578 201.046 48.0742 201.789L45.4668 204.579H50.418V206ZM58.7236 201.51C58.7236 203.043 58.4355 204.201 57.8594 204.982C57.2881 205.758 56.4165 206.146 55.2446 206.146C54.0923 206.146 53.2231 205.768 52.6372 205.011C52.0562 204.25 51.7583 203.124 51.7437 201.635V199.789C51.7437 198.256 52.0293 197.106 52.6006 196.339C53.1768 195.573 54.0532 195.189 55.23 195.189C56.397 195.189 57.2661 195.563 57.8374 196.31C58.4136 197.057 58.709 198.175 58.7236 199.665V201.51ZM56.9438 199.518C56.9438 198.517 56.8071 197.785 56.5337 197.321C56.2603 196.852 55.8257 196.618 55.23 196.618C54.6489 196.618 54.2217 196.84 53.9482 197.284C53.6748 197.724 53.5308 198.412 53.5161 199.35V201.767C53.5161 202.763 53.6553 203.505 53.9336 203.993C54.2119 204.481 54.6489 204.726 55.2446 204.726C55.8159 204.726 56.2383 204.501 56.5117 204.052C56.7852 203.598 56.9292 202.89 56.9438 201.928V199.518ZM65.1177 206H63.3452V197.438L60.7305 198.332V196.83L64.8906 195.299H65.1177V206ZM74.3608 195.285V196.757H74.1411C73.145 196.771 72.3491 197.045 71.7534 197.577C71.1577 198.109 70.8037 198.864 70.6914 199.84C71.2627 199.24 71.9927 198.939 72.8813 198.939C73.8237 198.939 74.5659 199.271 75.1079 199.936C75.6548 200.6 75.9282 201.457 75.9282 202.506C75.9282 203.59 75.6084 204.469 74.9688 205.143C74.334 205.812 73.499 206.146 72.4639 206.146C71.3994 206.146 70.5352 205.753 69.8711 204.967C69.2119 204.181 68.8823 203.151 68.8823 201.876V201.269C68.8823 199.398 69.3364 197.934 70.2446 196.874C71.1577 195.814 72.4688 195.285 74.1777 195.285H74.3608ZM72.4492 200.375C72.0586 200.375 71.6997 200.485 71.3726 200.705C71.0503 200.924 70.8135 201.217 70.6621 201.583V202.125C70.6621 202.917 70.8281 203.546 71.1602 204.015C71.4922 204.479 71.9219 204.711 72.4492 204.711C72.9766 204.711 73.394 204.513 73.7017 204.118C74.0093 203.722 74.1631 203.202 74.1631 202.558C74.1631 201.913 74.0068 201.388 73.6943 200.983C73.3818 200.578 72.9668 200.375 72.4492 200.375Z" fill="black"/>
<path d="M53.9808 132.199H55.3064V133.627H53.9808V136H52.201V133.627H47.594L47.5428 132.543L52.1424 125.336H53.9808V132.199ZM49.4104 132.199H52.201V127.746L52.0691 127.98L49.4104 132.199ZM58.2437 129.855H59.3277C59.8746 129.85 60.3067 129.708 60.6241 129.43C60.9464 129.152 61.1075 128.749 61.1075 128.222C61.1075 127.714 60.9732 127.321 60.7047 127.042C60.441 126.759 60.0357 126.618 59.4889 126.618C59.0104 126.618 58.6173 126.757 58.3097 127.035C58.0021 127.309 57.8482 127.667 57.8482 128.112H56.0685C56.0685 127.565 56.2125 127.067 56.5006 126.618C56.7936 126.168 57.1988 125.819 57.7164 125.57C58.2389 125.316 58.8224 125.189 59.4669 125.189C60.5313 125.189 61.3663 125.458 61.9718 125.995C62.5821 126.527 62.8873 127.27 62.8873 128.222C62.8873 128.7 62.7335 129.152 62.4259 129.577C62.1231 129.997 61.7301 130.314 61.2467 130.529C61.8326 130.729 62.277 131.044 62.5797 131.474C62.8873 131.903 63.0411 132.416 63.0411 133.012C63.0411 133.969 62.7115 134.73 62.0523 135.297C61.398 135.863 60.5362 136.146 59.4669 136.146C58.4415 136.146 57.6017 135.873 56.9474 135.326C56.2931 134.779 55.9659 134.052 55.9659 133.144H57.7457C57.7457 133.612 57.902 133.993 58.2145 134.286C58.5318 134.579 58.9566 134.726 59.4889 134.726C60.0406 134.726 60.4752 134.579 60.7926 134.286C61.11 133.993 61.2687 133.568 61.2687 133.012C61.2687 132.45 61.1026 132.018 60.7706 131.715C60.4386 131.413 59.9454 131.261 59.2911 131.261H58.2437V129.855ZM71.3617 131.51C71.3617 133.043 71.0736 134.201 70.4975 134.982C69.9262 135.758 69.0546 136.146 67.8827 136.146C66.7304 136.146 65.8612 135.768 65.2753 135.011C64.6942 134.25 64.3964 133.124 64.3817 131.635V129.789C64.3817 128.256 64.6674 127.106 65.2387 126.339C65.8148 125.573 66.6913 125.189 67.8681 125.189C69.0351 125.189 69.9042 125.563 70.4755 126.31C71.0517 127.057 71.3471 128.175 71.3617 129.665V131.51ZM69.5819 129.518C69.5819 128.517 69.4452 127.785 69.1718 127.321C68.8983 126.852 68.4638 126.618 67.8681 126.618C67.287 126.618 66.8598 126.84 66.5863 127.284C66.3129 127.724 66.1688 128.412 66.1542 129.35V131.767C66.1542 132.763 66.2934 133.505 66.5717 133.993C66.85 134.481 67.287 134.726 67.8827 134.726C68.454 134.726 68.8764 134.501 69.1498 134.052C69.4232 133.598 69.5673 132.89 69.5819 131.928V129.518ZM45.3271 151.81L47.6708 146.075H49.8974V154H48.1176V148.756L45.935 154H44.7265L42.5365 148.727V154H40.7567V146.075H42.9979L45.3271 151.81ZM58.3352 146.075V154H56.5554V147.511H54.3142L54.1677 150.272C54.0749 151.6 53.8186 152.555 53.3986 153.136C52.9836 153.712 52.3464 154 51.487 154H50.9377L50.9304 152.521L51.2966 152.484C51.6872 152.43 51.9704 152.193 52.1462 151.773C52.3269 151.349 52.4416 150.577 52.4904 149.459L52.6369 146.075H58.3352ZM66.6411 154H64.8613V150.799H61.7778V154H59.998V146.075H61.7778V149.378H64.8613V146.075H66.6411V154ZM76.7638 151.217C76.7638 150.802 76.6319 150.46 76.3683 150.191C76.1046 149.918 75.6651 149.674 75.0499 149.459C74.4347 149.239 73.9562 149.037 73.6144 148.851C72.4767 148.241 71.9078 147.337 71.9078 146.141C71.9078 145.331 72.1544 144.664 72.6476 144.142C73.1407 143.619 73.8097 143.309 74.6544 143.211V141.615H75.8263V143.226C76.6759 143.348 77.3326 143.709 77.7965 144.31C78.2604 144.906 78.4923 145.682 78.4923 146.639H76.7198C76.7198 146.024 76.5807 145.541 76.3023 145.189C76.0289 144.833 75.6554 144.654 75.1817 144.654C74.713 144.654 74.3468 144.781 74.0831 145.035C73.8194 145.289 73.6876 145.653 73.6876 146.126C73.6876 146.551 73.817 146.893 74.0758 147.152C74.3395 147.406 74.7838 147.647 75.4088 147.877C76.0338 148.106 76.5245 148.319 76.881 148.514C77.2374 148.709 77.5377 148.934 77.7818 149.188C78.026 149.437 78.214 149.725 78.3458 150.052C78.4776 150.379 78.5436 150.763 78.5436 151.202C78.5436 152.027 78.2896 152.696 77.7818 153.209C77.2789 153.722 76.5758 154.024 75.6725 154.117V155.545H74.5079V154.125C73.5411 154.017 72.7965 153.67 72.274 153.084C71.7564 152.499 71.4977 151.722 71.4977 150.755H73.2774C73.2774 151.371 73.4313 151.847 73.7389 152.184C74.0514 152.521 74.4908 152.689 75.0572 152.689C75.6139 152.689 76.0362 152.555 76.3243 152.286C76.6173 152.018 76.7638 151.661 76.7638 151.217Z" fill="white"/>
<path d="M151.936 130.712L152.515 125.336H158.242V126.874H153.994L153.701 129.423C154.195 129.14 154.751 128.998 155.371 128.998C156.387 128.998 157.176 129.323 157.737 129.972C158.304 130.622 158.587 131.496 158.587 132.594C158.587 133.678 158.274 134.542 157.649 135.187C157.024 135.827 156.167 136.146 155.078 136.146C154.102 136.146 153.291 135.871 152.647 135.319C152.007 134.762 151.66 134.03 151.607 133.122H153.328C153.396 133.639 153.582 134.037 153.885 134.315C154.187 134.589 154.583 134.726 155.071 134.726C155.618 134.726 156.043 134.53 156.346 134.14C156.653 133.749 156.807 133.217 156.807 132.543C156.807 131.894 156.638 131.381 156.302 131.005C155.965 130.624 155.501 130.434 154.91 130.434C154.588 130.434 154.314 130.478 154.09 130.565C153.865 130.648 153.621 130.814 153.357 131.063L151.936 130.712ZM160.162 130.712L160.74 125.336H166.468V126.874H162.22L161.927 129.423C162.42 129.14 162.977 128.998 163.597 128.998C164.612 128.998 165.401 129.323 165.962 129.972C166.529 130.622 166.812 131.496 166.812 132.594C166.812 133.678 166.5 134.542 165.875 135.187C165.25 135.827 164.393 136.146 163.304 136.146C162.327 136.146 161.517 135.871 160.872 135.319C160.233 134.762 159.886 134.03 159.832 133.122H161.553C161.622 133.639 161.807 134.037 162.11 134.315C162.413 134.589 162.808 134.726 163.296 134.726C163.843 134.726 164.268 134.53 164.571 134.14C164.879 133.749 165.032 133.217 165.032 132.543C165.032 131.894 164.864 131.381 164.527 131.005C164.19 130.624 163.726 130.434 163.135 130.434C162.813 130.434 162.54 130.478 162.315 130.565C162.09 130.648 161.846 130.814 161.583 131.063L160.162 130.712ZM174.862 131.51C174.862 133.043 174.574 134.201 173.997 134.982C173.426 135.758 172.555 136.146 171.383 136.146C170.23 136.146 169.361 135.768 168.775 135.011C168.194 134.25 167.896 133.124 167.882 131.635V129.789C167.882 128.256 168.167 127.106 168.739 126.339C169.315 125.573 170.191 125.189 171.368 125.189C172.535 125.189 173.404 125.563 173.975 126.31C174.552 127.057 174.847 128.175 174.862 129.665V131.51ZM173.082 129.518C173.082 128.517 172.945 127.785 172.672 127.321C172.398 126.852 171.964 126.618 171.368 126.618C170.787 126.618 170.36 126.84 170.086 127.284C169.813 127.724 169.669 128.412 169.654 129.35V131.767C169.654 132.763 169.793 133.505 170.072 133.993C170.35 134.481 170.787 134.726 171.383 134.726C171.954 134.726 172.376 134.501 172.65 134.052C172.923 133.598 173.067 132.89 173.082 131.928V129.518ZM148.827 151.81L151.171 146.075H153.397V154H151.618V148.756L149.435 154H148.226L146.037 148.727V154H144.257V146.075H146.498L148.827 151.81ZM161.835 146.075V154H160.055V147.511H157.814L157.668 150.272C157.575 151.6 157.319 152.555 156.899 153.136C156.484 153.712 155.846 154 154.987 154H154.438L154.43 152.521L154.797 152.484C155.187 152.43 155.47 152.193 155.646 151.773C155.827 151.349 155.942 150.577 155.99 149.459L156.137 146.075H161.835ZM170.141 154H168.361V150.799H165.278V154H163.498V146.075H165.278V149.378H168.361V146.075H170.141V154ZM180.264 151.217C180.264 150.802 180.132 150.46 179.868 150.191C179.605 149.918 179.165 149.674 178.55 149.459C177.935 149.239 177.456 149.037 177.114 148.851C175.977 148.241 175.408 147.337 175.408 146.141C175.408 145.331 175.654 144.664 176.148 144.142C176.641 143.619 177.31 143.309 178.154 143.211V141.615H179.326V143.226C180.176 143.348 180.833 143.709 181.296 144.31C181.76 144.906 181.992 145.682 181.992 146.639H180.22C180.22 146.024 180.081 145.541 179.802 145.189C179.529 144.833 179.155 144.654 178.682 144.654C178.213 144.654 177.847 144.781 177.583 145.035C177.319 145.289 177.188 145.653 177.188 146.126C177.188 146.551 177.317 146.893 177.576 147.152C177.839 147.406 178.284 147.647 178.909 147.877C179.534 148.106 180.025 148.319 180.381 148.514C180.737 148.709 181.038 148.934 181.282 149.188C181.526 149.437 181.714 149.725 181.846 150.052C181.978 150.379 182.044 150.763 182.044 151.202C182.044 152.027 181.79 152.696 181.282 153.209C180.779 153.722 180.076 154.024 179.172 154.117V155.545H178.008V154.125C177.041 154.017 176.296 153.67 175.774 153.084C175.256 152.499 174.998 151.722 174.998 150.755H176.777C176.777 151.371 176.931 151.847 177.239 152.184C177.551 152.521 177.991 152.689 178.557 152.689C179.114 152.689 179.536 152.555 179.824 152.286C180.117 152.018 180.264 151.661 180.264 151.217Z" fill="white"/>
<path d="M150.259 66.1333H153.042V67.7593H150.259V70.9307H148.531V67.7593H145.733V66.1333H148.531V63.167H150.259V66.1333ZM161.268 72H154.097V70.7769L157.65 66.9023C158.162 66.3311 158.526 65.855 158.741 65.4741C158.961 65.0884 159.07 64.7026 159.07 64.3169C159.07 63.8091 158.926 63.3989 158.638 63.0864C158.355 62.7739 157.972 62.6177 157.488 62.6177C156.912 62.6177 156.465 62.7935 156.148 63.145C155.831 63.4966 155.672 63.9775 155.672 64.5879H153.892C153.892 63.9385 154.039 63.355 154.332 62.8374C154.629 62.3149 155.052 61.9097 155.599 61.6216C156.15 61.3335 156.785 61.1895 157.503 61.1895C158.538 61.1895 159.354 61.4507 159.949 61.9731C160.55 62.4907 160.85 63.2085 160.85 64.1265C160.85 64.6587 160.699 65.2178 160.396 65.8037C160.098 66.3848 159.608 67.0464 158.924 67.7886L156.317 70.5791H161.268V72ZM169.039 64.1484C169.039 64.6709 168.905 65.1372 168.636 65.5474C168.368 65.9526 168.001 66.2725 167.538 66.5068C168.094 66.7656 168.521 67.1196 168.819 67.5688C169.122 68.0181 169.273 68.5259 169.273 69.0923C169.273 70.0298 168.956 70.7744 168.321 71.3262C167.686 71.873 166.842 72.1465 165.787 72.1465C164.727 72.1465 163.878 71.8706 163.238 71.3188C162.603 70.7671 162.286 70.0249 162.286 69.0923C162.286 68.521 162.437 68.0083 162.74 67.5542C163.043 67.1001 163.468 66.751 164.015 66.5068C163.556 66.2725 163.192 65.9526 162.923 65.5474C162.66 65.1372 162.528 64.6709 162.528 64.1484C162.528 63.2402 162.821 62.52 163.407 61.9878C163.993 61.4556 164.784 61.1895 165.78 61.1895C166.781 61.1895 167.574 61.4556 168.16 61.9878C168.746 62.52 169.039 63.2402 169.039 64.1484ZM167.494 69.0044C167.494 68.4771 167.335 68.0522 167.017 67.73C166.705 67.4028 166.29 67.2393 165.772 67.2393C165.255 67.2393 164.84 67.4004 164.527 67.7227C164.22 68.0449 164.066 68.4722 164.066 69.0044C164.066 69.5269 164.217 69.9443 164.52 70.2568C164.828 70.5693 165.25 70.7256 165.787 70.7256C166.324 70.7256 166.742 70.5742 167.039 70.2715C167.342 69.9688 167.494 69.5464 167.494 69.0044ZM167.267 64.2144C167.267 63.7505 167.132 63.3696 166.864 63.0718C166.595 62.769 166.234 62.6177 165.78 62.6177C165.326 62.6177 164.967 62.7617 164.703 63.0498C164.439 63.333 164.308 63.7212 164.308 64.2144C164.308 64.7026 164.439 65.0908 164.703 65.3789C164.972 65.667 165.333 65.811 165.787 65.811C166.241 65.811 166.6 65.667 166.864 65.3789C167.132 65.0908 167.267 64.7026 167.267 64.2144ZM170.475 63.3867C170.475 62.7422 170.682 62.2148 171.097 61.8047C171.512 61.3896 172.057 61.1821 172.731 61.1821C173.414 61.1821 173.961 61.3896 174.371 61.8047C174.786 62.2148 174.994 62.7544 174.994 63.4233V63.9507C174.994 64.5903 174.786 65.1152 174.371 65.5254C173.961 65.9355 173.419 66.1406 172.745 66.1406C172.086 66.1406 171.542 65.9404 171.112 65.54C170.687 65.1348 170.475 64.5903 170.475 63.9067V63.3867ZM171.72 63.9507C171.72 64.2876 171.813 64.561 171.998 64.771C172.189 64.9761 172.438 65.0786 172.745 65.0786C173.048 65.0786 173.292 64.9761 173.478 64.771C173.663 64.561 173.756 64.2778 173.756 63.9214V63.3867C173.756 63.0498 173.661 62.7764 173.47 62.5664C173.285 62.3564 173.038 62.2515 172.731 62.2515C172.423 62.2515 172.176 62.3589 171.991 62.5737C171.81 62.7837 171.72 63.062 171.72 63.4087V63.9507ZM175.602 69.3853C175.602 68.731 175.814 68.2012 176.239 67.7959C176.664 67.3906 177.206 67.188 177.865 67.188C178.529 67.188 179.071 67.3906 179.491 67.7959C179.916 68.2012 180.128 68.748 180.128 69.4365V69.9565C180.128 70.5913 179.923 71.1162 179.513 71.5312C179.108 71.9414 178.563 72.1465 177.88 72.1465C177.196 72.1465 176.644 71.9438 176.224 71.5386C175.809 71.1284 175.602 70.5889 175.602 69.9199V69.3853ZM176.847 69.9565C176.847 70.2886 176.942 70.562 177.133 70.7769C177.328 70.9868 177.577 71.0918 177.88 71.0918C178.192 71.0918 178.436 70.9917 178.612 70.7915C178.793 70.5864 178.883 70.3008 178.883 69.9346V69.3853C178.883 69.0435 178.788 68.77 178.597 68.5649C178.407 68.3599 178.163 68.2573 177.865 68.2573C177.562 68.2573 177.316 68.3599 177.125 68.5649C176.94 68.77 176.847 69.0532 176.847 69.4146V69.9565ZM173.112 71.2017L172.196 70.6743L177.404 62.3394L178.319 62.8667L173.112 71.2017Z" fill="white"/>
<path d="M260.557 126.325L256.295 136H254.427L258.682 126.764H253.167V125.336H260.557V126.325ZM267.706 132.199H269.032V133.627H267.706V136H265.926V133.627H261.319L261.268 132.543L265.868 125.336H267.706V132.199ZM263.136 132.199H265.926V127.746L265.795 127.98L263.136 132.199ZM275.448 125.285V126.757H275.228C274.232 126.771 273.436 127.045 272.841 127.577C272.245 128.109 271.891 128.864 271.779 129.84C272.35 129.24 273.08 128.939 273.969 128.939C274.911 128.939 275.653 129.271 276.195 129.936C276.742 130.6 277.016 131.457 277.016 132.506C277.016 133.59 276.696 134.469 276.056 135.143C275.421 135.812 274.586 136.146 273.551 136.146C272.487 136.146 271.622 135.753 270.958 134.967C270.299 134.181 269.97 133.151 269.97 131.876V131.269C269.97 129.398 270.424 127.934 271.332 126.874C272.245 125.814 273.556 125.285 275.265 125.285H275.448ZM273.537 130.375C273.146 130.375 272.787 130.485 272.46 130.705C272.138 130.924 271.901 131.217 271.749 131.583V132.125C271.749 132.917 271.915 133.546 272.247 134.015C272.579 134.479 273.009 134.711 273.537 134.711C274.064 134.711 274.481 134.513 274.789 134.118C275.097 133.722 275.25 133.202 275.25 132.558C275.25 131.913 275.094 131.388 274.782 130.983C274.469 130.578 274.054 130.375 273.537 130.375ZM250.827 151.81L253.171 146.075H255.397V154H253.618V148.756L251.435 154H250.226L248.037 148.727V154H246.257V146.075H248.498L250.827 151.81ZM263.835 146.075V154H262.055V147.511H259.814L259.668 150.272C259.575 151.6 259.319 152.555 258.899 153.136C258.484 153.712 257.846 154 256.987 154H256.438L256.43 152.521L256.797 152.484C257.187 152.43 257.47 152.193 257.646 151.773C257.827 151.349 257.942 150.577 257.99 149.459L258.137 146.075H263.835ZM272.141 154H270.361V150.799H267.278V154H265.498V146.075H267.278V149.378H270.361V146.075H272.141V154ZM282.264 151.217C282.264 150.802 282.132 150.46 281.868 150.191C281.605 149.918 281.165 149.674 280.55 149.459C279.935 149.239 279.456 149.037 279.114 148.851C277.977 148.241 277.408 147.337 277.408 146.141C277.408 145.331 277.654 144.664 278.148 144.142C278.641 143.619 279.31 143.309 280.154 143.211V141.615H281.326V143.226C282.176 143.348 282.833 143.709 283.296 144.31C283.76 144.906 283.992 145.682 283.992 146.639H282.22C282.22 146.024 282.081 145.541 281.802 145.189C281.529 144.833 281.155 144.654 280.682 144.654C280.213 144.654 279.847 144.781 279.583 145.035C279.319 145.289 279.188 145.653 279.188 146.126C279.188 146.551 279.317 146.893 279.576 147.152C279.839 147.406 280.284 147.647 280.909 147.877C281.534 148.106 282.025 148.319 282.381 148.514C282.737 148.709 283.038 148.934 283.282 149.188C283.526 149.437 283.714 149.725 283.846 150.052C283.978 150.379 284.044 150.763 284.044 151.202C284.044 152.027 283.79 152.696 283.282 153.209C282.779 153.722 282.076 154.024 281.172 154.117V155.545H280.008V154.125C279.041 154.017 278.296 153.67 277.774 153.084C277.256 152.499 276.998 151.722 276.998 150.755H278.777C278.777 151.371 278.931 151.847 279.239 152.184C279.551 152.521 279.991 152.689 280.557 152.689C281.114 152.689 281.536 152.555 281.824 152.286C282.117 152.018 282.264 151.661 282.264 151.217Z" fill="white"/>
<path d="M253.259 42.1333H256.042V43.7593H253.259V46.9307H251.531V43.7593H248.733V42.1333H251.531V39.167H253.259V42.1333ZM259.155 41.855H260.239C260.786 41.8501 261.218 41.7085 261.536 41.4302C261.858 41.1519 262.019 40.749 262.019 40.2217C262.019 39.7139 261.885 39.3208 261.616 39.0425C261.353 38.7593 260.947 38.6177 260.4 38.6177C259.922 38.6177 259.529 38.7568 259.221 39.0352C258.914 39.3086 258.76 39.6675 258.76 40.1118H256.98C256.98 39.5649 257.124 39.0669 257.412 38.6177C257.705 38.1685 258.11 37.8193 258.628 37.5703C259.15 37.3164 259.734 37.1895 260.379 37.1895C261.443 37.1895 262.278 37.458 262.883 37.9951C263.494 38.5273 263.799 39.2695 263.799 40.2217C263.799 40.7002 263.645 41.1519 263.338 41.5767C263.035 41.9966 262.642 42.314 262.158 42.5288C262.744 42.729 263.189 43.0439 263.491 43.4736C263.799 43.9033 263.953 44.416 263.953 45.0117C263.953 45.9688 263.623 46.7305 262.964 47.2969C262.31 47.8633 261.448 48.1465 260.379 48.1465C259.353 48.1465 258.513 47.873 257.859 47.3262C257.205 46.7793 256.878 46.0518 256.878 45.1436H258.657C258.657 45.6123 258.814 45.9932 259.126 46.2861C259.443 46.5791 259.868 46.7256 260.4 46.7256C260.952 46.7256 261.387 46.5791 261.704 46.2861C262.022 45.9932 262.18 45.5684 262.18 45.0117C262.18 44.4502 262.014 44.0181 261.682 43.7153C261.35 43.4126 260.857 43.2612 260.203 43.2612H259.155V41.855ZM270.86 37.2847V38.7568H270.64C269.644 38.7715 268.848 39.0449 268.252 39.5771C267.657 40.1094 267.303 40.8638 267.19 41.8403C267.762 41.2397 268.492 40.9395 269.38 40.9395C270.323 40.9395 271.065 41.2715 271.607 41.9355C272.154 42.5996 272.427 43.4565 272.427 44.5063C272.427 45.5903 272.107 46.4692 271.468 47.1431C270.833 47.812 269.998 48.1465 268.963 48.1465C267.898 48.1465 267.034 47.7534 266.37 46.9673C265.711 46.1812 265.381 45.1509 265.381 43.8765V43.2686C265.381 41.3984 265.835 39.9336 266.744 38.874C267.657 37.8145 268.968 37.2847 270.677 37.2847H270.86ZM268.948 42.375C268.558 42.375 268.199 42.4849 267.871 42.7046C267.549 42.9243 267.312 43.2173 267.161 43.5835V44.1255C267.161 44.9165 267.327 45.5464 267.659 46.0151C267.991 46.479 268.421 46.7109 268.948 46.7109C269.475 46.7109 269.893 46.5132 270.201 46.1177C270.508 45.7222 270.662 45.2021 270.662 44.5576C270.662 43.9131 270.506 43.3882 270.193 42.9829C269.881 42.5776 269.466 42.375 268.948 42.375ZM273.475 39.3867C273.475 38.7422 273.682 38.2148 274.097 37.8047C274.512 37.3896 275.057 37.1821 275.731 37.1821C276.414 37.1821 276.961 37.3896 277.371 37.8047C277.786 38.2148 277.994 38.7544 277.994 39.4233V39.9507C277.994 40.5903 277.786 41.1152 277.371 41.5254C276.961 41.9355 276.419 42.1406 275.745 42.1406C275.086 42.1406 274.542 41.9404 274.112 41.54C273.687 41.1348 273.475 40.5903 273.475 39.9067V39.3867ZM274.72 39.9507C274.72 40.2876 274.813 40.561 274.998 40.771C275.189 40.9761 275.438 41.0786 275.745 41.0786C276.048 41.0786 276.292 40.9761 276.478 40.771C276.663 40.561 276.756 40.2778 276.756 39.9214V39.3867C276.756 39.0498 276.661 38.7764 276.47 38.5664C276.285 38.3564 276.038 38.2515 275.731 38.2515C275.423 38.2515 275.176 38.3589 274.991 38.5737C274.81 38.7837 274.72 39.062 274.72 39.4087V39.9507ZM278.602 45.3853C278.602 44.731 278.814 44.2012 279.239 43.7959C279.664 43.3906 280.206 43.188 280.865 43.188C281.529 43.188 282.071 43.3906 282.491 43.7959C282.916 44.2012 283.128 44.748 283.128 45.4365V45.9565C283.128 46.5913 282.923 47.1162 282.513 47.5312C282.108 47.9414 281.563 48.1465 280.88 48.1465C280.196 48.1465 279.644 47.9438 279.224 47.5386C278.809 47.1284 278.602 46.5889 278.602 45.9199V45.3853ZM279.847 45.9565C279.847 46.2886 279.942 46.562 280.133 46.7769C280.328 46.9868 280.577 47.0918 280.88 47.0918C281.192 47.0918 281.436 46.9917 281.612 46.7915C281.793 46.5864 281.883 46.3008 281.883 45.9346V45.3853C281.883 45.0435 281.788 44.77 281.597 44.5649C281.407 44.3599 281.163 44.2573 280.865 44.2573C280.562 44.2573 280.316 44.3599 280.125 44.5649C279.94 44.77 279.847 45.0532 279.847 45.4146V45.9565ZM276.112 47.2017L275.196 46.6743L280.404 38.3394L281.319 38.8667L276.112 47.2017Z" fill="white"/>
<path opacity="0.7" d="M153.418 206H146.248V204.777L149.8 200.902C150.312 200.331 150.676 199.855 150.891 199.474C151.111 199.088 151.221 198.703 151.221 198.317C151.221 197.809 151.077 197.399 150.789 197.086C150.505 196.774 150.122 196.618 149.639 196.618C149.062 196.618 148.616 196.793 148.298 197.145C147.981 197.497 147.822 197.978 147.822 198.588H146.042C146.042 197.938 146.189 197.355 146.482 196.837C146.78 196.315 147.202 195.91 147.749 195.622C148.301 195.333 148.936 195.189 149.653 195.189C150.688 195.189 151.504 195.451 152.1 195.973C152.7 196.491 153 197.208 153 198.126C153 198.659 152.849 199.218 152.546 199.804C152.249 200.385 151.758 201.046 151.074 201.789L148.467 204.579H153.418V206ZM161.724 201.51C161.724 203.043 161.436 204.201 160.859 204.982C160.288 205.758 159.417 206.146 158.245 206.146C157.092 206.146 156.223 205.768 155.637 205.011C155.056 204.25 154.758 203.124 154.744 201.635V199.789C154.744 198.256 155.029 197.106 155.601 196.339C156.177 195.573 157.053 195.189 158.23 195.189C159.397 195.189 160.266 195.563 160.837 196.31C161.414 197.057 161.709 198.175 161.724 199.665V201.51ZM159.944 199.518C159.944 198.517 159.807 197.785 159.534 197.321C159.26 196.852 158.826 196.618 158.23 196.618C157.649 196.618 157.222 196.84 156.948 197.284C156.675 197.724 156.531 198.412 156.516 199.35V201.767C156.516 202.763 156.655 203.505 156.934 203.993C157.212 204.481 157.649 204.726 158.245 204.726C158.816 204.726 159.238 204.501 159.512 204.052C159.785 203.598 159.929 202.89 159.944 201.928V199.518ZM168.118 206H166.345V197.438L163.73 198.332V196.83L167.891 195.299H168.118V206ZM178.921 196.325L174.658 206H172.791L177.046 196.764H171.531V195.336H178.921V196.325Z" fill="black"/>
<path opacity="0.7" d="M256.418 206H249.248V204.777L252.8 200.902C253.312 200.331 253.676 199.855 253.891 199.474C254.111 199.088 254.221 198.703 254.221 198.317C254.221 197.809 254.077 197.399 253.789 197.086C253.505 196.774 253.122 196.618 252.639 196.618C252.062 196.618 251.616 196.793 251.298 197.145C250.981 197.497 250.822 197.978 250.822 198.588H249.042C249.042 197.938 249.189 197.355 249.482 196.837C249.78 196.315 250.202 195.91 250.749 195.622C251.301 195.333 251.936 195.189 252.653 195.189C253.688 195.189 254.504 195.451 255.1 195.973C255.7 196.491 256 197.208 256 198.126C256 198.659 255.849 199.218 255.546 199.804C255.249 200.385 254.758 201.046 254.074 201.789L251.467 204.579H256.418V206ZM264.724 201.51C264.724 203.043 264.436 204.201 263.859 204.982C263.288 205.758 262.417 206.146 261.245 206.146C260.092 206.146 259.223 205.768 258.637 205.011C258.056 204.25 257.758 203.124 257.744 201.635V199.789C257.744 198.256 258.029 197.106 258.601 196.339C259.177 195.573 260.053 195.189 261.23 195.189C262.397 195.189 263.266 195.563 263.837 196.31C264.414 197.057 264.709 198.175 264.724 199.665V201.51ZM262.944 199.518C262.944 198.517 262.807 197.785 262.534 197.321C262.26 196.852 261.826 196.618 261.23 196.618C260.649 196.618 260.222 196.84 259.948 197.284C259.675 197.724 259.531 198.412 259.516 199.35V201.767C259.516 202.763 259.655 203.505 259.934 203.993C260.212 204.481 260.649 204.726 261.245 204.726C261.816 204.726 262.238 204.501 262.512 204.052C262.785 203.598 262.929 202.89 262.944 201.928V199.518ZM271.118 206H269.345V197.438L266.73 198.332V196.83L270.891 195.299H271.118V206ZM281.54 198.148C281.54 198.671 281.406 199.137 281.137 199.547C280.869 199.953 280.502 200.272 280.039 200.507C280.595 200.766 281.022 201.12 281.32 201.569C281.623 202.018 281.774 202.526 281.774 203.092C281.774 204.03 281.457 204.774 280.822 205.326C280.188 205.873 279.343 206.146 278.288 206.146C277.229 206.146 276.379 205.871 275.739 205.319C275.104 204.767 274.787 204.025 274.787 203.092C274.787 202.521 274.938 202.008 275.241 201.554C275.544 201.1 275.969 200.751 276.516 200.507C276.057 200.272 275.693 199.953 275.424 199.547C275.161 199.137 275.029 198.671 275.029 198.148C275.029 197.24 275.322 196.52 275.908 195.988C276.494 195.456 277.285 195.189 278.281 195.189C279.282 195.189 280.075 195.456 280.661 195.988C281.247 196.52 281.54 197.24 281.54 198.148ZM279.995 203.004C279.995 202.477 279.836 202.052 279.519 201.73C279.206 201.403 278.791 201.239 278.273 201.239C277.756 201.239 277.341 201.4 277.028 201.723C276.721 202.045 276.567 202.472 276.567 203.004C276.567 203.527 276.718 203.944 277.021 204.257C277.329 204.569 277.751 204.726 278.288 204.726C278.825 204.726 279.243 204.574 279.541 204.271C279.843 203.969 279.995 203.546 279.995 203.004ZM279.768 198.214C279.768 197.75 279.633 197.37 279.365 197.072C279.096 196.769 278.735 196.618 278.281 196.618C277.827 196.618 277.468 196.762 277.204 197.05C276.94 197.333 276.809 197.721 276.809 198.214C276.809 198.703 276.94 199.091 277.204 199.379C277.473 199.667 277.834 199.811 278.288 199.811C278.742 199.811 279.101 199.667 279.365 199.379C279.633 199.091 279.768 198.703 279.768 198.214Z" fill="black"/>
</g>
<defs>
<filter id="filter0_d_0_77" x="9" y="72" width="101" height="109" filterUnits="userSpaceOnUse" color-interpolation-filters="sRGB">
<feFlood flood-opacity="0" result="BackgroundImageFix"/>
<feColorMatrix in="SourceAlpha" type="matrix" values="0 0 0 0 0 0 0 0 0 0 0 0 0 0 0 0 0 0 127 0" result="hardAlpha"/>
<feOffset dy="-4"/>
<feGaussianBlur stdDeviation="5.5"/>
<feColorMatrix type="matrix" values="0 0 0 0 0.101961 0 0 0 0 0.266667 0 0 0 0 0.443137 0 0 0 0.100005 0"/>
<feBlend mode="normal" in2="BackgroundImageFix" result="effect1_dropShadow_0_77"/>
<feBlend mode="normal" in="SourceGraphic" in2="effect1_dropShadow_0_77" result="shape"/>
</filter>
<filter id="filter1_d_0_77" x="215" y="-15" width="101" height="196" filterUnits="userSpaceOnUse" color-interpolation-filters="sRGB">
<feFlood flood-opacity="0" result="BackgroundImageFix"/>
<feColorMatrix in="SourceAlpha" type="matrix" values="0 0 0 0 0 0 0 0 0 0 0 0 0 0 0 0 0 0 127 0" result="hardAlpha"/>
<feOffset dy="-4"/>
<feGaussianBlur stdDeviation="5.5"/>
<feColorMatrix type="matrix" values="0 0 0 0 0.101961 0 0 0 0 0.266667 0 0 0 0 0.443137 0 0 0 0.100005 0"/>
<feBlend mode="normal" in2="BackgroundImageFix" result="effect1_dropShadow_0_77"/>
<feBlend mode="normal" in="SourceGraphic" in2="effect1_dropShadow_0_77" result="shape"/>
</filter>
<filter id="filter2_d_0_77" x="112" y="30" width="101" height="151" filterUnits="userSpaceOnUse" color-interpolation-filters="sRGB">
<feFlood flood-opacity="0" result="BackgroundImageFix"/>
<feColorMatrix in="SourceAlpha" type="matrix" values="0 0 0 0 0 0 0 0 0 0 0 0 0 0 0 0 0 0 127 0" result="hardAlpha"/>
<feOffset dy="-4"/>
<feGaussianBlur stdDeviation="5.5"/>
<feColorMatrix type="matrix" values="0 0 0 0 0.101961 0 0 0 0 0.266667 0 0 0 0 0.443137 0 0 0 0.100005 0"/>
<feBlend mode="normal" in2="BackgroundImageFix" result="effect1_dropShadow_0_77"/>
<feBlend mode="normal" in="SourceGraphic" in2="effect1_dropShadow_0_77" result="shape"/>
</filter>
<filter id="filter3_d_0_77" x="89" y="33" width="147" height="111" filterUnits="userSpaceOnUse" color-interpolation-filters="sRGB">
<feFlood flood-opacity="0" result="BackgroundImageFix"/>
<feColorMatrix in="SourceAlpha" type="matrix" values="0 0 0 0 0 0 0 0 0 0 0 0 0 0 0 0 0 0 127 0" result="hardAlpha"/>
<feOffset dy="22"/>
<feGaussianBlur stdDeviation="17"/>
<feColorMatrix type="matrix" values="0 0 0 0 0.235294 0 0 0 0 0.784314 0 0 0 0 0.682353 0 0 0 0.5 0"/>
<feBlend mode="normal" in2="BackgroundImageFix" result="effect1_dropShadow_0_77"/>
<feBlend mode="normal" in="SourceGraphic" in2="effect1_dropShadow_0_77" result="shape"/>
</filter>
<filter id="filter4_d_0_77" x="192" y="-12" width="147" height="156" filterUnits="userSpaceOnUse" color-interpolation-filters="sRGB">
<feFlood flood-opacity="0" result="BackgroundImageFix"/>
<feColorMatrix in="SourceAlpha" type="matrix" values="0 0 0 0 0 0 0 0 0 0 0 0 0 0 0 0 0 0 127 0" result="hardAlpha"/>
<feOffset dy="22"/>
<feGaussianBlur stdDeviation="17"/>
<feColorMatrix type="matrix" values="0 0 0 0 0.235294 0 0 0 0 0.784314 0 0 0 0 0.682353 0 0 0 0.5 0"/>
<feBlend mode="normal" in2="BackgroundImageFix" result="effect1_dropShadow_0_77"/>
<feBlend mode="normal" in="SourceGraphic" in2="effect1_dropShadow_0_77" result="shape"/>
</filter>
<clipPath id="clip0_0_77">
<rect width="327" height="210" fill="white"/>
</clipPath>
</defs>
</svg>
