<svg width="245" height="284" viewBox="0 0 245 284" fill="none" xmlns="http://www.w3.org/2000/svg">
<g clip-path="url(#clip0_0_634)">
<g clip-path="url(#clip1_0_634)">
<path d="M97.8984 207.831H102.723V210.649H97.8984V216.146H94.9023V210.649H90.0527V207.831H94.9023V202.689H97.8984V207.831ZM120.981 211.411H123.279V213.887H120.981V218H117.896V213.887H109.911L109.822 212.008L117.795 199.516H120.981V211.411ZM113.06 211.411H117.896V203.692L117.668 204.099L113.06 211.411ZM136.871 210.218C136.871 212.875 136.372 214.881 135.373 216.235C134.383 217.581 132.872 218.254 130.841 218.254C128.843 218.254 127.337 217.598 126.321 216.286C125.314 214.966 124.798 213.015 124.772 210.434V207.234C124.772 204.577 125.268 202.584 126.258 201.255C127.257 199.926 128.776 199.262 130.815 199.262C132.838 199.262 134.345 199.909 135.335 201.204C136.334 202.499 136.846 204.437 136.871 207.019V210.218ZM133.786 206.765C133.786 205.03 133.549 203.76 133.075 202.956C132.601 202.144 131.848 201.737 130.815 201.737C129.808 201.737 129.068 202.122 128.594 202.893C128.12 203.654 127.87 204.848 127.845 206.473V210.662C127.845 212.389 128.086 213.675 128.568 214.521C129.051 215.368 129.808 215.791 130.841 215.791C131.831 215.791 132.563 215.402 133.037 214.623C133.511 213.836 133.761 212.609 133.786 210.941V206.765ZM138.974 203.07C138.974 201.953 139.333 201.039 140.053 200.328C140.772 199.609 141.716 199.249 142.884 199.249C144.069 199.249 145.017 199.609 145.728 200.328C146.447 201.039 146.807 201.974 146.807 203.134V204.048C146.807 205.157 146.447 206.066 145.728 206.777C145.017 207.488 144.077 207.844 142.909 207.844C141.767 207.844 140.823 207.497 140.078 206.803C139.342 206.1 138.974 205.157 138.974 203.972V203.07ZM141.132 204.048C141.132 204.632 141.293 205.106 141.614 205.47C141.944 205.825 142.376 206.003 142.909 206.003C143.434 206.003 143.857 205.825 144.179 205.47C144.5 205.106 144.661 204.615 144.661 203.997V203.07C144.661 202.486 144.496 202.012 144.166 201.648C143.844 201.285 143.417 201.103 142.884 201.103C142.351 201.103 141.923 201.289 141.602 201.661C141.288 202.025 141.132 202.507 141.132 203.108V204.048ZM147.86 213.468C147.86 212.334 148.229 211.415 148.965 210.713C149.701 210.01 150.641 209.659 151.783 209.659C152.934 209.659 153.874 210.01 154.602 210.713C155.338 211.415 155.706 212.363 155.706 213.557V214.458C155.706 215.558 155.351 216.468 154.64 217.188C153.937 217.898 152.993 218.254 151.809 218.254C150.624 218.254 149.667 217.903 148.939 217.2C148.22 216.489 147.86 215.554 147.86 214.395V213.468ZM150.019 214.458C150.019 215.034 150.184 215.507 150.514 215.88C150.852 216.244 151.284 216.426 151.809 216.426C152.35 216.426 152.773 216.252 153.078 215.905C153.391 215.55 153.548 215.055 153.548 214.42V213.468C153.548 212.875 153.383 212.401 153.053 212.046C152.723 211.69 152.299 211.513 151.783 211.513C151.258 211.513 150.831 211.69 150.501 212.046C150.179 212.401 150.019 212.892 150.019 213.519V214.458ZM143.544 216.616L141.957 215.702L150.983 201.255L152.57 202.169L143.544 216.616Z" fill="#152739"/>
<path opacity="0.7" d="M14.4689 240.842C14.3459 241.895 13.9563 242.708 13.3 243.282C12.6483 243.852 11.7801 244.137 10.6955 244.137C9.51973 244.137 8.57637 243.715 7.86543 242.872C7.15905 242.029 6.80586 240.901 6.80586 239.488V238.531C6.80586 237.606 6.96992 236.793 7.29805 236.091C7.63073 235.389 8.10013 234.851 8.70625 234.478C9.31237 234.099 10.0142 233.91 10.8117 233.91C11.869 233.91 12.7167 234.206 13.3547 234.799C13.9927 235.387 14.3641 236.202 14.4689 237.246H13.1496C13.0357 236.453 12.7873 235.879 12.4045 235.523C12.0262 235.168 11.4953 234.99 10.8117 234.99C9.97318 234.99 9.31465 235.3 8.83614 235.92C8.36218 236.54 8.1252 237.422 8.1252 238.565V239.529C8.1252 240.609 8.35078 241.468 8.80196 242.106C9.25313 242.744 9.88431 243.063 10.6955 243.063C11.4247 243.063 11.9829 242.899 12.3703 242.571C12.7622 242.239 13.022 241.662 13.1496 240.842H14.4689ZM22.1166 240.384C22.1166 241.509 21.8591 242.416 21.3441 243.104C20.8292 243.793 20.1319 244.137 19.2523 244.137C18.3546 244.137 17.6482 243.852 17.1332 243.282V246.844H15.8686V236.604H17.0238L17.0854 237.424C17.6003 236.786 18.3158 236.467 19.2318 236.467C20.1205 236.467 20.8223 236.802 21.3373 237.472C21.8568 238.142 22.1166 239.074 22.1166 240.268V240.384ZM20.852 240.24C20.852 239.406 20.6742 238.748 20.3188 238.265C19.9633 237.782 19.4757 237.54 18.8559 237.54C18.0902 237.54 17.516 237.88 17.1332 238.559V242.093C17.5115 242.767 18.0902 243.104 18.8695 243.104C19.4757 243.104 19.9564 242.865 20.3119 242.387C20.6719 241.904 20.852 241.188 20.852 240.24ZM26.5992 244.137C25.5966 244.137 24.7809 243.809 24.152 243.152C23.5231 242.492 23.2086 241.61 23.2086 240.507V240.274C23.2086 239.541 23.3476 238.887 23.6256 238.312C23.9081 237.734 24.3001 237.283 24.8014 236.959C25.3072 236.631 25.8541 236.467 26.442 236.467C27.4036 236.467 28.151 236.784 28.6842 237.417C29.2174 238.05 29.484 238.957 29.484 240.138V240.664H24.4732C24.4915 241.393 24.7034 241.983 25.109 242.435C25.5191 242.881 26.0387 243.104 26.6676 243.104C27.1142 243.104 27.4925 243.013 27.8023 242.831C28.1122 242.649 28.3834 242.407 28.6158 242.106L29.3883 242.708C28.7685 243.66 27.8388 244.137 26.5992 244.137ZM26.442 237.506C25.9316 237.506 25.5032 237.693 25.1568 238.066C24.8105 238.436 24.5963 238.955 24.5143 239.625H28.2193V239.529C28.1829 238.887 28.0097 238.39 27.6998 238.039C27.3899 237.684 26.9706 237.506 26.442 237.506ZM30.6922 242.968L31.1297 242.428C31.6219 241.79 31.9022 240.833 31.9705 239.557L32.0867 236.604H36.8514V242.968H37.8016V246.174H36.5369V244H31.3758V246.174H30.1111L30.118 242.968H30.6922ZM32.1893 242.968H35.5867V237.772H33.3104L33.2352 239.536C33.1577 241.008 32.8091 242.152 32.1893 242.968ZM45.0459 244H43.7813V240.842H40.3838V244H39.1123V236.604H40.3838V239.81H43.7813V236.604H45.0459V244ZM51.6682 236.604H52.9328V244H51.6682V238.606L48.257 244H46.9924V236.604H48.257V242.004L51.6682 236.604ZM59.5482 236.604H60.8129V244H59.5482V238.606L56.1371 244H54.8725V236.604H56.1371V242.004L59.5482 236.604ZM59.89 233.91C59.89 234.462 59.7009 234.906 59.3227 235.243C58.949 235.576 58.4568 235.742 57.8461 235.742C57.2354 235.742 56.741 235.574 56.3627 235.236C55.9844 234.899 55.7953 234.457 55.7953 233.91H56.8275C56.8275 234.229 56.9141 234.48 57.0873 234.662C57.2605 234.84 57.5134 234.929 57.8461 234.929C58.1651 234.929 58.4135 234.84 58.5912 234.662C58.7735 234.484 58.8647 234.234 58.8647 233.91H59.89ZM71.9656 244H70.701V237.649H67.2967V244H66.0252V236.604H71.9656V244ZM80.0439 240.384C80.0439 241.509 79.7865 242.416 79.2715 243.104C78.7565 243.793 78.0592 244.137 77.1797 244.137C76.2819 244.137 75.5755 243.852 75.0605 243.282V246.844H73.7959V236.604H74.9512L75.0127 237.424C75.5277 236.786 76.2432 236.467 77.1592 236.467C78.0479 236.467 78.7497 236.802 79.2646 237.472C79.7842 238.142 80.0439 239.074 80.0439 240.268V240.384ZM78.7793 240.24C78.7793 239.406 78.6016 238.748 78.2461 238.265C77.8906 237.782 77.403 237.54 76.7832 237.54C76.0176 237.54 75.4434 237.88 75.0605 238.559V242.093C75.4388 242.767 76.0176 243.104 76.7969 243.104C77.403 243.104 77.8838 242.865 78.2393 242.387C78.5993 241.904 78.7793 241.188 78.7793 240.24ZM86.2424 236.604H87.507V244H86.2424V238.606L82.8313 244H81.5666V236.604H82.8313V242.004L86.2424 236.604ZM95.5854 240.384C95.5854 241.509 95.3279 242.416 94.8129 243.104C94.2979 243.793 93.6007 244.137 92.7211 244.137C91.8233 244.137 91.1169 243.852 90.602 243.282V246.844H89.3373V236.604H90.4926L90.5541 237.424C91.0691 236.786 91.7846 236.467 92.7006 236.467C93.5893 236.467 94.2911 236.802 94.8061 237.472C95.3256 238.142 95.5854 239.074 95.5854 240.268V240.384ZM94.3207 240.24C94.3207 239.406 94.143 238.748 93.7875 238.265C93.432 237.782 92.9444 237.54 92.3246 237.54C91.559 237.54 90.9848 237.88 90.602 238.559V242.093C90.9802 242.767 91.559 243.104 92.3383 243.104C92.9444 243.104 93.4252 242.865 93.7807 242.387C94.1407 241.904 94.3207 241.188 94.3207 240.24ZM96.6637 240.233C96.6637 239.509 96.8049 238.857 97.0875 238.278C97.3746 237.7 97.7711 237.253 98.277 236.938C98.7874 236.624 99.3684 236.467 100.02 236.467C101.027 236.467 101.841 236.815 102.461 237.513C103.085 238.21 103.397 239.137 103.397 240.295V240.384C103.397 241.104 103.258 241.751 102.98 242.325C102.707 242.895 102.312 243.339 101.797 243.658C101.287 243.977 100.699 244.137 100.034 244.137C99.0312 244.137 98.2177 243.788 97.5934 243.091C96.9736 242.394 96.6637 241.471 96.6637 240.322V240.233ZM97.9352 240.384C97.9352 241.204 98.1243 241.863 98.5025 242.359C98.8854 242.856 99.3958 243.104 100.034 243.104C100.676 243.104 101.187 242.854 101.565 242.353C101.943 241.847 102.132 241.14 102.132 240.233C102.132 239.422 101.939 238.766 101.551 238.265C101.169 237.759 100.658 237.506 100.02 237.506C99.3958 237.506 98.8922 237.754 98.5094 238.251C98.1266 238.748 97.9352 239.459 97.9352 240.384ZM107.75 243.104C108.201 243.104 108.595 242.968 108.932 242.694C109.27 242.421 109.457 242.079 109.493 241.669H110.689C110.666 242.093 110.521 242.496 110.252 242.879C109.983 243.262 109.623 243.567 109.172 243.795C108.725 244.023 108.251 244.137 107.75 244.137C106.743 244.137 105.941 243.802 105.344 243.132C104.751 242.457 104.455 241.537 104.455 240.37V240.158C104.455 239.438 104.587 238.798 104.851 238.237C105.116 237.677 105.494 237.242 105.986 236.932C106.483 236.622 107.068 236.467 107.743 236.467C108.572 236.467 109.261 236.715 109.807 237.212C110.359 237.709 110.653 238.354 110.689 239.146H109.493C109.457 238.668 109.274 238.276 108.946 237.971C108.623 237.661 108.221 237.506 107.743 237.506C107.1 237.506 106.601 237.738 106.246 238.203C105.895 238.663 105.72 239.331 105.72 240.206V240.445C105.72 241.298 105.895 241.954 106.246 242.414C106.597 242.874 107.098 243.104 107.75 243.104ZM117.407 237.629H114.926V244H113.661V237.629H111.228V236.604H117.407V237.629ZM121.827 244V236.604H124.711C125.696 236.604 126.45 236.777 126.974 237.123C127.503 237.465 127.767 237.968 127.767 238.634C127.767 238.976 127.664 239.285 127.459 239.563C127.254 239.837 126.951 240.047 126.55 240.192C126.997 240.297 127.355 240.502 127.623 240.808C127.897 241.113 128.034 241.478 128.034 241.901C128.034 242.58 127.783 243.1 127.282 243.46C126.785 243.82 126.081 244 125.169 244H121.827ZM123.091 240.753V242.981H125.183C125.712 242.981 126.106 242.883 126.366 242.688C126.63 242.492 126.762 242.216 126.762 241.86C126.762 241.122 126.22 240.753 125.135 240.753H123.091ZM123.091 239.741H124.725C125.91 239.741 126.502 239.395 126.502 238.702C126.502 238.009 125.942 237.652 124.821 237.629H123.091V239.741ZM130.889 239.153H132.81C133.649 239.162 134.312 239.381 134.799 239.81C135.287 240.238 135.531 240.819 135.531 241.553C135.531 242.291 135.28 242.883 134.779 243.33C134.278 243.777 133.603 244 132.755 244H129.625V236.604H130.889V239.153ZM138.17 244H136.898V236.604H138.17V244ZM130.889 240.186V242.968H132.769C133.243 242.968 133.61 242.847 133.87 242.605C134.129 242.359 134.259 242.024 134.259 241.601C134.259 241.19 134.132 240.855 133.877 240.596C133.626 240.331 133.273 240.195 132.817 240.186H130.889ZM146.426 240.384C146.426 241.509 146.168 242.416 145.653 243.104C145.138 243.793 144.441 244.137 143.561 244.137C142.664 244.137 141.957 243.852 141.442 243.282V246.844H140.178V236.604H141.333L141.394 237.424C141.909 236.786 142.625 236.467 143.541 236.467C144.429 236.467 145.131 236.802 145.646 237.472C146.166 238.142 146.426 239.074 146.426 240.268V240.384ZM145.161 240.24C145.161 239.406 144.983 238.748 144.628 238.265C144.272 237.782 143.785 237.54 143.165 237.54C142.399 237.54 141.825 237.88 141.442 238.559V242.093C141.82 242.767 142.399 243.104 143.179 243.104C143.785 243.104 144.265 242.865 144.621 242.387C144.981 241.904 145.161 241.188 145.161 240.24ZM150.177 242.147L151.899 236.604H153.253L150.279 245.142C149.819 246.372 149.088 246.987 148.085 246.987L147.846 246.967L147.374 246.878V245.853L147.716 245.88C148.144 245.88 148.477 245.793 148.714 245.62C148.955 245.447 149.154 245.13 149.309 244.67L149.589 243.918L146.95 236.604H148.331L150.177 242.147ZM159.773 244H158.501V241.32C157.945 241.466 157.376 241.539 156.792 241.539C155.867 241.539 155.161 241.302 154.673 240.828C154.19 240.354 153.944 239.68 153.935 238.805V236.597H155.199V238.846C155.222 239.949 155.753 240.5 156.792 240.5C157.376 240.5 157.945 240.427 158.501 240.281V236.604H159.773V244ZM163.907 240.849H162.984V244H161.712V236.604H162.984V239.734H163.811L166.299 236.604H167.83L164.905 240.158L168.077 244H166.47L163.907 240.849ZM173.749 236.604H175.013V244H173.749V238.606L170.338 244H169.073V236.604H170.338V242.004L173.749 236.604ZM180.232 244V236.604H183.117C184.102 236.604 184.856 236.777 185.38 237.123C185.909 237.465 186.173 237.968 186.173 238.634C186.173 238.976 186.07 239.285 185.865 239.563C185.66 239.837 185.357 240.047 184.956 240.192C185.403 240.297 185.76 240.502 186.029 240.808C186.303 241.113 186.439 241.478 186.439 241.901C186.439 242.58 186.189 243.1 185.688 243.46C185.191 243.82 184.487 244 183.575 244H180.232ZM181.497 240.753V242.981H183.589C184.118 242.981 184.512 242.883 184.771 242.688C185.036 242.492 185.168 242.216 185.168 241.86C185.168 241.122 184.626 240.753 183.541 240.753H181.497ZM181.497 239.741H183.131C184.316 239.741 184.908 239.395 184.908 238.702C184.908 238.009 184.348 237.652 183.227 237.629H181.497V239.741ZM195.965 237.649H192.554V244H191.283V236.604H195.965V237.649ZM196.394 240.233C196.394 239.509 196.535 238.857 196.818 238.278C197.105 237.7 197.502 237.253 198.007 236.938C198.518 236.624 199.099 236.467 199.751 236.467C200.758 236.467 201.571 236.815 202.191 237.513C202.815 238.21 203.128 239.137 203.128 240.295V240.384C203.128 241.104 202.989 241.751 202.711 242.325C202.437 242.895 202.043 243.339 201.528 243.658C201.018 243.977 200.43 244.137 199.764 244.137C198.762 244.137 197.948 243.788 197.324 243.091C196.704 242.394 196.394 241.471 196.394 240.322V240.233ZM197.666 240.384C197.666 241.204 197.855 241.863 198.233 242.359C198.616 242.856 199.126 243.104 199.764 243.104C200.407 243.104 200.917 242.854 201.296 242.353C201.674 241.847 201.863 241.14 201.863 240.233C201.863 239.422 201.669 238.766 201.282 238.265C200.899 237.759 200.389 237.506 199.751 237.506C199.126 237.506 198.623 237.754 198.24 238.251C197.857 238.748 197.666 239.459 197.666 240.384ZM203.96 242.968L204.397 242.428C204.889 241.79 205.17 240.833 205.238 239.557L205.354 236.604H210.119V242.968H211.069V246.174H209.804V244H204.643V246.174H203.379L203.386 242.968H203.96ZM205.457 242.968H208.854V237.772H206.578L206.503 239.536C206.425 241.008 206.077 242.152 205.457 242.968ZM221.593 244H220.328V237.649H216.924V244H215.653V236.604H221.593V244ZM229.671 240.384C229.671 241.509 229.414 242.416 228.899 243.104C228.384 243.793 227.687 244.137 226.807 244.137C225.909 244.137 225.203 243.852 224.688 243.282V246.844H223.423V236.604H224.579L224.64 237.424C225.155 236.786 225.871 236.467 226.787 236.467C227.675 236.467 228.377 236.802 228.892 237.472C229.412 238.142 229.671 239.074 229.671 240.268V240.384ZM228.407 240.24C228.407 239.406 228.229 238.748 227.873 238.265C227.518 237.782 227.03 237.54 226.411 237.54C225.645 237.54 225.071 237.88 224.688 238.559V242.093C225.066 242.767 225.645 243.104 226.424 243.104C227.03 243.104 227.511 242.865 227.867 242.387C228.227 241.904 228.407 241.188 228.407 240.24ZM235.87 236.604H237.134V244H235.87V238.606L232.459 244H231.194V236.604H232.459V242.004L235.87 236.604ZM52.8354 262H51.5707V255.649H48.1664V262H46.8949V254.604H52.8354V262ZM60.9137 258.384C60.9137 259.509 60.6562 260.416 60.1412 261.104C59.6262 261.793 58.929 262.137 58.0494 262.137C57.1516 262.137 56.4452 261.852 55.9303 261.282V264.844H54.6656V254.604H55.8209L55.8824 255.424C56.3974 254.786 57.1129 254.467 58.0289 254.467C58.9176 254.467 59.6194 254.802 60.1344 255.472C60.6539 256.142 60.9137 257.074 60.9137 258.268V258.384ZM59.649 258.24C59.649 257.406 59.4713 256.748 59.1158 256.265C58.7603 255.782 58.2727 255.54 57.6529 255.54C56.8873 255.54 56.3131 255.88 55.9303 256.559V260.093C56.3085 260.767 56.8873 261.104 57.6666 261.104C58.2727 261.104 58.7535 260.865 59.109 260.387C59.469 259.904 59.649 259.188 59.649 258.24ZM61.992 258.233C61.992 257.509 62.1333 256.857 62.4158 256.278C62.7029 255.7 63.0994 255.253 63.6053 254.938C64.1157 254.624 64.6967 254.467 65.3484 254.467C66.3556 254.467 67.1691 254.815 67.7889 255.513C68.4132 256.21 68.7254 257.137 68.7254 258.295V258.384C68.7254 259.104 68.5864 259.751 68.3084 260.325C68.035 260.895 67.6408 261.339 67.1258 261.658C66.6154 261.977 66.0275 262.137 65.3621 262.137C64.3595 262.137 63.546 261.788 62.9217 261.091C62.3019 260.394 61.992 259.471 61.992 258.322V258.233ZM63.2635 258.384C63.2635 259.204 63.4526 259.863 63.8309 260.359C64.2137 260.856 64.7241 261.104 65.3621 261.104C66.0047 261.104 66.5151 260.854 66.8934 260.353C67.2716 259.847 67.4607 259.14 67.4607 258.233C67.4607 257.422 67.2671 256.766 66.8797 256.265C66.4969 255.759 65.9865 255.506 65.3484 255.506C64.7241 255.506 64.2205 255.754 63.8377 256.251C63.4549 256.748 63.2635 257.459 63.2635 258.384ZM69.5576 260.968L69.9951 260.428C70.4873 259.79 70.7676 258.833 70.8359 257.557L70.9521 254.604H75.7168V260.968H76.667V264.174H75.4023V262H70.2412V264.174H68.9766L68.9834 260.968H69.5576ZM71.0547 260.968H74.4521V255.772H72.1758L72.1006 257.536C72.0231 259.008 71.6745 260.152 71.0547 260.968ZM82.4348 262C82.3619 261.854 82.3026 261.594 82.257 261.221C81.6691 261.831 80.9673 262.137 80.1516 262.137C79.4224 262.137 78.8231 261.932 78.3537 261.521C77.8889 261.107 77.6564 260.583 77.6564 259.949C77.6564 259.179 77.9481 258.582 78.5314 258.158C79.1193 257.73 79.9442 257.516 81.0061 257.516H82.2365V256.935C82.2365 256.493 82.1044 256.142 81.84 255.882C81.5757 255.618 81.1861 255.485 80.6711 255.485C80.2199 255.485 79.8417 255.599 79.5363 255.827C79.231 256.055 79.0783 256.331 79.0783 256.654H77.8068C77.8068 256.285 77.9367 255.93 78.1965 255.588C78.4608 255.242 78.8163 254.968 79.2629 254.768C79.7141 254.567 80.2085 254.467 80.7463 254.467C81.5985 254.467 82.2661 254.681 82.7492 255.109C83.2323 255.533 83.4829 256.119 83.5012 256.866V260.271C83.5012 260.95 83.5878 261.49 83.7609 261.891V262H82.4348ZM80.3361 261.036C80.7326 261.036 81.1086 260.934 81.4641 260.729C81.8195 260.523 82.077 260.257 82.2365 259.929V258.411H81.2453C79.6958 258.411 78.9211 258.865 78.9211 259.771C78.9211 260.168 79.0533 260.478 79.3176 260.701C79.5819 260.924 79.9214 261.036 80.3361 261.036ZM91.183 258.787H90.2943V262H89.0297V258.787H88.141L86.0697 262H84.4701L87.1156 258.172L84.723 254.604H86.2543L88.1615 257.666H89.0297V254.604H90.2943V257.666H91.1557L93.0766 254.604H94.6078L92.2084 258.179L94.8539 262H93.2543L91.183 258.787ZM98.735 262.137C97.7324 262.137 96.9166 261.809 96.2877 261.152C95.6588 260.492 95.3443 259.61 95.3443 258.507V258.274C95.3443 257.541 95.4833 256.887 95.7613 256.312C96.0439 255.734 96.4358 255.283 96.9371 254.959C97.443 254.631 97.9898 254.467 98.5777 254.467C99.5393 254.467 100.287 254.784 100.82 255.417C101.353 256.05 101.62 256.957 101.62 258.138V258.664H96.609C96.6272 259.393 96.8391 259.983 97.2447 260.435C97.6549 260.881 98.1744 261.104 98.8033 261.104C99.2499 261.104 99.6282 261.013 99.9381 260.831C100.248 260.649 100.519 260.407 100.752 260.106L101.524 260.708C100.904 261.66 99.9745 262.137 98.735 262.137ZM98.5777 255.506C98.0673 255.506 97.6389 255.693 97.2926 256.066C96.9462 256.436 96.732 256.955 96.65 257.625H100.355V257.529C100.319 256.887 100.145 256.39 99.8355 256.039C99.5256 255.684 99.1064 255.506 98.5777 255.506ZM112.205 262H110.94V258.842H107.543V262H106.271V254.604H107.543V257.81H110.94V254.604H112.205V262ZM118.609 262C118.536 261.854 118.476 261.594 118.431 261.221C117.843 261.831 117.141 262.137 116.325 262.137C115.596 262.137 114.997 261.932 114.528 261.521C114.063 261.107 113.83 260.583 113.83 259.949C113.83 259.179 114.122 258.582 114.705 258.158C115.293 257.73 116.118 257.516 117.18 257.516H118.41V256.935C118.41 256.493 118.278 256.142 118.014 255.882C117.75 255.618 117.36 255.485 116.845 255.485C116.394 255.485 116.015 255.599 115.71 255.827C115.405 256.055 115.252 256.331 115.252 256.654H113.981C113.981 256.285 114.111 255.93 114.37 255.588C114.635 255.242 114.99 254.968 115.437 254.768C115.888 254.567 116.382 254.467 116.92 254.467C117.772 254.467 118.44 254.681 118.923 255.109C119.406 255.533 119.657 256.119 119.675 256.866V260.271C119.675 260.95 119.762 261.49 119.935 261.891V262H118.609ZM116.51 261.036C116.906 261.036 117.282 260.934 117.638 260.729C117.993 260.523 118.251 260.257 118.41 259.929V258.411H117.419C115.87 258.411 115.095 258.865 115.095 259.771C115.095 260.168 115.227 260.478 115.491 260.701C115.756 260.924 116.095 261.036 116.51 261.036ZM130.773 262H129.508V258.842H126.111V262H124.839V254.604H126.111V257.81H129.508V254.604H130.773V262ZM135.679 262.137C134.677 262.137 133.861 261.809 133.232 261.152C132.603 260.492 132.289 259.61 132.289 258.507V258.274C132.289 257.541 132.428 256.887 132.706 256.312C132.988 255.734 133.38 255.283 133.882 254.959C134.387 254.631 134.934 254.467 135.522 254.467C136.484 254.467 137.231 254.784 137.764 255.417C138.298 256.05 138.564 256.957 138.564 258.138V258.664H133.554C133.572 259.393 133.784 259.983 134.189 260.435C134.599 260.881 135.119 261.104 135.748 261.104C136.194 261.104 136.573 261.013 136.883 260.831C137.193 260.649 137.464 260.407 137.696 260.106L138.469 260.708C137.849 261.66 136.919 262.137 135.679 262.137ZM135.522 255.506C135.012 255.506 134.583 255.693 134.237 256.066C133.891 256.436 133.677 256.955 133.595 257.625H137.3V257.529C137.263 256.887 137.09 256.39 136.78 256.039C136.47 255.684 136.051 255.506 135.522 255.506ZM142.801 261.104C143.252 261.104 143.646 260.968 143.983 260.694C144.321 260.421 144.507 260.079 144.544 259.669H145.74C145.717 260.093 145.572 260.496 145.303 260.879C145.034 261.262 144.674 261.567 144.223 261.795C143.776 262.023 143.302 262.137 142.801 262.137C141.794 262.137 140.992 261.802 140.395 261.132C139.802 260.457 139.506 259.537 139.506 258.37V258.158C139.506 257.438 139.638 256.798 139.902 256.237C140.167 255.677 140.545 255.242 141.037 254.932C141.534 254.622 142.119 254.467 142.794 254.467C143.623 254.467 144.312 254.715 144.858 255.212C145.41 255.709 145.704 256.354 145.74 257.146H144.544C144.507 256.668 144.325 256.276 143.997 255.971C143.674 255.661 143.272 255.506 142.794 255.506C142.151 255.506 141.652 255.738 141.297 256.203C140.946 256.663 140.771 257.331 140.771 258.206V258.445C140.771 259.298 140.946 259.954 141.297 260.414C141.648 260.874 142.149 261.104 142.801 261.104ZM149.266 258.849H148.343V262H147.071V254.604H148.343V257.734H149.17L151.658 254.604H153.19L150.264 258.158L153.436 262H151.829L149.266 258.849ZM153.837 258.233C153.837 257.509 153.979 256.857 154.261 256.278C154.548 255.7 154.945 255.253 155.451 254.938C155.961 254.624 156.542 254.467 157.194 254.467C158.201 254.467 159.014 254.815 159.634 255.513C160.259 256.21 160.571 257.137 160.571 258.295V258.384C160.571 259.104 160.432 259.751 160.154 260.325C159.88 260.895 159.486 261.339 158.971 261.658C158.461 261.977 157.873 262.137 157.207 262.137C156.205 262.137 155.391 261.788 154.767 261.091C154.147 260.394 153.837 259.471 153.837 258.322V258.233ZM155.109 258.384C155.109 259.204 155.298 259.863 155.676 260.359C156.059 260.856 156.569 261.104 157.207 261.104C157.85 261.104 158.36 260.854 158.739 260.353C159.117 259.847 159.306 259.14 159.306 258.233C159.306 257.422 159.112 256.766 158.725 256.265C158.342 255.759 157.832 255.506 157.194 255.506C156.569 255.506 156.066 255.754 155.683 256.251C155.3 256.748 155.109 257.459 155.109 258.384ZM167.911 254.604V262H166.639V255.649H164.124L163.973 258.418C163.891 259.689 163.677 260.599 163.331 261.146C162.989 261.692 162.444 261.977 161.697 262H161.191V260.886L161.553 260.858C161.963 260.813 162.257 260.576 162.435 260.147C162.613 259.719 162.727 258.926 162.777 257.769L162.914 254.604H167.911ZM171.122 257.153H173.043C173.881 257.162 174.544 257.381 175.032 257.81C175.52 258.238 175.763 258.819 175.763 259.553C175.763 260.291 175.513 260.883 175.012 261.33C174.51 261.777 173.836 262 172.988 262H169.857V254.604H171.122V257.153ZM171.122 258.186V260.968H173.002C173.476 260.968 173.843 260.847 174.102 260.605C174.362 260.359 174.492 260.024 174.492 259.601C174.492 259.19 174.364 258.855 174.109 258.596C173.859 258.331 173.505 258.195 173.05 258.186H171.122ZM179.446 258.849H178.523V262H177.252V254.604H178.523V257.734H179.351L181.839 254.604H183.37L180.444 258.158L183.616 262H182.01L179.446 258.849ZM189.288 254.604H190.553V262H189.288V256.606L185.877 262H184.612V254.604H185.877V260.004L189.288 254.604ZM194.865 257.304L196.505 254.604H197.982L195.562 258.261L198.057 262H196.594L194.885 259.231L193.176 262H191.706L194.202 258.261L191.782 254.604H193.245L194.865 257.304ZM77.9393 278.325L80.4549 272.604H82.034V280H80.7693V274.62L78.3768 280H77.5018L75.0613 274.504V280H73.7967V272.604H75.4373L77.9393 278.325ZM88.4375 280C88.3646 279.854 88.3053 279.594 88.2598 279.221C87.6719 279.831 86.9701 280.137 86.1543 280.137C85.4251 280.137 84.8258 279.932 84.3564 279.521C83.8916 279.107 83.6592 278.583 83.6592 277.949C83.6592 277.179 83.9508 276.582 84.5342 276.158C85.1221 275.73 85.9469 275.516 87.0088 275.516H88.2393V274.935C88.2393 274.493 88.1071 274.142 87.8428 273.882C87.5785 273.618 87.1888 273.485 86.6738 273.485C86.2227 273.485 85.8444 273.599 85.5391 273.827C85.2337 274.055 85.0811 274.331 85.0811 274.654H83.8096C83.8096 274.285 83.9395 273.93 84.1992 273.588C84.4635 273.242 84.819 272.968 85.2656 272.768C85.7168 272.567 86.2113 272.467 86.749 272.467C87.6012 272.467 88.2689 272.681 88.752 273.109C89.235 273.533 89.4857 274.119 89.5039 274.866V278.271C89.5039 278.95 89.5905 279.49 89.7637 279.891V280H88.4375ZM86.3389 279.036C86.7354 279.036 87.1113 278.934 87.4668 278.729C87.8223 278.523 88.0798 278.257 88.2393 277.929V276.411H87.248C85.6986 276.411 84.9238 276.865 84.9238 277.771C84.9238 278.168 85.056 278.478 85.3203 278.701C85.5846 278.924 85.9242 279.036 86.3389 279.036ZM97.5344 276.384C97.5344 277.509 97.2769 278.416 96.7619 279.104C96.2469 279.793 95.5497 280.137 94.6701 280.137C93.7723 280.137 93.0659 279.852 92.551 279.282V282.844H91.2863V272.604H92.4416L92.5031 273.424C93.0181 272.786 93.7336 272.467 94.6496 272.467C95.5383 272.467 96.2401 272.802 96.7551 273.472C97.2746 274.142 97.5344 275.074 97.5344 276.268V276.384ZM96.2697 276.24C96.2697 275.406 96.092 274.748 95.7365 274.265C95.3811 273.782 94.8934 273.54 94.2736 273.54C93.508 273.54 92.9338 273.88 92.551 274.559V278.093C92.9292 278.767 93.508 279.104 94.2873 279.104C94.8934 279.104 95.3742 278.865 95.7297 278.387C96.0897 277.904 96.2697 277.188 96.2697 276.24ZM101.251 276.849H100.329V280H99.057V272.604H100.329V275.734H101.156L103.644 272.604H105.175L102.249 276.158L105.421 280H103.815L101.251 276.849ZM109.268 280.137C108.266 280.137 107.45 279.809 106.821 279.152C106.192 278.492 105.878 277.61 105.878 276.507V276.274C105.878 275.541 106.017 274.887 106.295 274.312C106.577 273.734 106.969 273.283 107.47 272.959C107.976 272.631 108.523 272.467 109.111 272.467C110.073 272.467 110.82 272.784 111.353 273.417C111.886 274.05 112.153 274.957 112.153 276.138V276.664H107.142C107.16 277.393 107.372 277.983 107.778 278.435C108.188 278.881 108.708 279.104 109.337 279.104C109.783 279.104 110.161 279.013 110.471 278.831C110.781 278.649 111.052 278.407 111.285 278.106L112.057 278.708C111.437 279.66 110.508 280.137 109.268 280.137ZM109.111 273.506C108.601 273.506 108.172 273.693 107.826 274.066C107.479 274.436 107.265 274.955 107.183 275.625H110.888V275.529C110.852 274.887 110.679 274.39 110.369 274.039C110.059 273.684 109.64 273.506 109.111 273.506ZM118.837 273.629H116.355V280H115.091V273.629H112.657V272.604H118.837V273.629ZM125.917 280H124.652V273.649H121.248V280H119.977V272.604H125.917V280ZM133.811 272.604V280H132.539V273.649H130.024L129.873 276.418C129.791 277.689 129.577 278.599 129.231 279.146C128.889 279.692 128.344 279.977 127.597 280H127.091V278.886L127.453 278.858C127.863 278.813 128.157 278.576 128.335 278.147C128.513 277.719 128.627 276.926 128.677 275.769L128.814 272.604H133.811ZM138.71 280.137C137.708 280.137 136.892 279.809 136.263 279.152C135.634 278.492 135.32 277.61 135.32 276.507V276.274C135.32 275.541 135.459 274.887 135.737 274.312C136.019 273.734 136.411 273.283 136.913 272.959C137.418 272.631 137.965 272.467 138.553 272.467C139.515 272.467 140.262 272.784 140.795 273.417C141.329 274.05 141.595 274.957 141.595 276.138V276.664H136.584C136.603 277.393 136.815 277.983 137.22 278.435C137.63 278.881 138.15 279.104 138.779 279.104C139.225 279.104 139.604 279.013 139.913 278.831C140.223 278.649 140.495 278.407 140.727 278.106L141.499 278.708C140.88 279.66 139.95 280.137 138.71 280.137ZM138.553 273.506C138.043 273.506 137.614 273.693 137.268 274.066C136.922 274.436 136.707 274.955 136.625 275.625H140.33V275.529C140.294 274.887 140.121 274.39 139.811 274.039C139.501 273.684 139.082 273.506 138.553 273.506ZM147.65 272.604H148.915V280H147.65V274.606L144.239 280H142.974V272.604H144.239V278.004L147.65 272.604ZM147.992 269.91C147.992 270.462 147.803 270.906 147.424 271.243C147.051 271.576 146.559 271.742 145.948 271.742C145.337 271.742 144.843 271.574 144.464 271.236C144.086 270.899 143.897 270.457 143.897 269.91H144.929C144.929 270.229 145.016 270.48 145.189 270.662C145.362 270.84 145.615 270.929 145.948 270.929C146.267 270.929 146.515 270.84 146.693 270.662C146.875 270.484 146.966 270.234 146.966 269.91H147.992ZM153.712 279.104C154.163 279.104 154.557 278.968 154.894 278.694C155.232 278.421 155.418 278.079 155.455 277.669H156.651C156.628 278.093 156.483 278.496 156.214 278.879C155.945 279.262 155.585 279.567 155.134 279.795C154.687 280.023 154.213 280.137 153.712 280.137C152.705 280.137 151.902 279.802 151.305 279.132C150.713 278.457 150.417 277.537 150.417 276.37V276.158C150.417 275.438 150.549 274.798 150.813 274.237C151.078 273.677 151.456 273.242 151.948 272.932C152.445 272.622 153.03 272.467 153.705 272.467C154.534 272.467 155.222 272.715 155.769 273.212C156.321 273.709 156.615 274.354 156.651 275.146H155.455C155.418 274.668 155.236 274.276 154.908 273.971C154.584 273.661 154.183 273.506 153.705 273.506C153.062 273.506 152.563 273.738 152.208 274.203C151.857 274.663 151.681 275.331 151.681 276.206V276.445C151.681 277.298 151.857 277.954 152.208 278.414C152.559 278.874 153.06 279.104 153.712 279.104ZM162.439 280C162.367 279.854 162.307 279.594 162.262 279.221C161.674 279.831 160.972 280.137 160.156 280.137C159.427 280.137 158.828 279.932 158.358 279.521C157.894 279.107 157.661 278.583 157.661 277.949C157.661 277.179 157.953 276.582 158.536 276.158C159.124 275.73 159.949 275.516 161.011 275.516H162.241V274.935C162.241 274.493 162.109 274.142 161.845 273.882C161.58 273.618 161.191 273.485 160.676 273.485C160.225 273.485 159.846 273.599 159.541 273.827C159.236 274.055 159.083 274.331 159.083 274.654H157.812C157.812 274.285 157.941 273.93 158.201 273.588C158.465 273.242 158.821 272.968 159.268 272.768C159.719 272.567 160.213 272.467 160.751 272.467C161.603 272.467 162.271 272.681 162.754 273.109C163.237 273.533 163.488 274.119 163.506 274.866V278.271C163.506 278.95 163.592 279.49 163.766 279.891V280H162.439ZM160.341 279.036C160.737 279.036 161.113 278.934 161.469 278.729C161.824 278.523 162.082 278.257 162.241 277.929V276.411H161.25C159.701 276.411 158.926 276.865 158.926 277.771C158.926 278.168 159.058 278.478 159.322 278.701C159.587 278.924 159.926 279.036 160.341 279.036ZM167.77 275.304L169.41 272.604H170.887L168.467 276.261L170.962 280H169.499L167.79 277.231L166.081 280H164.612L167.107 276.261L164.687 272.604H166.15L167.77 275.304Z" fill="black"/>
</g>
<g filter="url(#filter0_d_0_634)">
<path d="M12 105C12 101.686 14.6863 99 18 99H69C72.3137 99 75 101.686 75 105V144H12V105Z" fill="#132739"/>
</g>
<g filter="url(#filter1_d_0_634)">
<path d="M91 59C91 55.6863 93.6863 53 97 53H148C151.314 53 154 55.6863 154 59V144H91V59Z" fill="#132739"/>
</g>
<g filter="url(#filter2_d_0_634)">
<path d="M91 59C91 55.6863 93.6863 53 97 53H148C151.314 53 154 55.6863 154 59V99H91V59Z" fill="#3CC8AE"/>
</g>
<g filter="url(#filter3_d_0_634)">
<path d="M170 6C170 2.68629 172.686 0 176 0H227C230.314 0 233 2.68629 233 6V144H170V6Z" fill="#132739"/>
</g>
<g filter="url(#filter4_d_0_634)">
<path d="M170 6C170 2.68629 172.686 0 176 0H227C230.314 0 233 2.68629 233 6V99H170V6Z" fill="#3CC8AE"/>
</g>
<rect y="144" width="245" height="1" fill="#D8D8D8"/>
<path opacity="0.5" d="M20.4971 169V165.547H18.707L16.9233 169H15.2031L17.2661 165.071C16.1912 164.563 15.6538 163.731 15.6538 162.576C15.6538 161.692 15.9437 161.004 16.5234 160.513C17.1074 160.018 17.9199 159.766 18.9609 159.758H22.103V169H20.4971ZM17.2534 162.646C17.2534 163.167 17.3994 163.573 17.6914 163.865C17.9834 164.157 18.4214 164.303 19.0054 164.303H20.4971V161.053H19.0054C18.4129 161.053 17.9728 161.194 17.6851 161.478C17.3973 161.762 17.2534 162.151 17.2534 162.646ZM32.3516 169H30.752V164.893H26.6196V169H25.0137V159.758H26.6196V163.604H30.752V159.758H32.3516V169ZM35.2559 169V159.758H38.4233C39.4686 159.758 40.2642 159.967 40.8101 160.386C41.356 160.805 41.6289 161.429 41.6289 162.259C41.6289 162.682 41.5146 163.063 41.2861 163.401C41.0576 163.74 40.7233 164.002 40.2832 164.188C40.7826 164.324 41.1676 164.58 41.4385 164.957C41.7135 165.329 41.8511 165.778 41.8511 166.302C41.8511 167.17 41.5718 167.836 41.0132 168.302C40.4588 168.767 39.6632 169 38.6265 169H35.2559ZM36.8618 164.83V167.718H38.6455C39.1491 167.718 39.5426 167.593 39.8262 167.343C40.1097 167.094 40.2515 166.747 40.2515 166.302C40.2515 165.342 39.7606 164.851 38.7788 164.83H36.8618ZM36.8618 163.649H38.436C38.9354 163.649 39.3247 163.537 39.604 163.312C39.8875 163.084 40.0293 162.762 40.0293 162.348C40.0293 161.891 39.8981 161.561 39.6357 161.357C39.3776 161.154 38.9735 161.053 38.4233 161.053H36.8618V163.649ZM49.6304 166.848H46.0503L45.3013 169H43.6318L47.123 159.758H48.564L52.0615 169H50.3857L49.6304 166.848ZM46.501 165.553H49.1797L47.8403 161.719L46.501 165.553ZM55.7212 165.566V169H54.1152V159.758H57.6509C58.6834 159.758 59.5023 160.027 60.1074 160.564C60.7168 161.101 61.0215 161.812 61.0215 162.697C61.0215 163.602 60.7231 164.307 60.1265 164.811C59.534 165.314 58.7025 165.566 57.6318 165.566H55.7212ZM55.7212 164.277H57.6509C58.2222 164.277 58.658 164.144 58.9585 163.877C59.259 163.607 59.4092 163.217 59.4092 162.709C59.4092 162.21 59.2568 161.812 58.9521 161.516C58.6475 161.216 58.2285 161.061 57.6953 161.053H55.7212V164.277ZM65.0112 163.293H66.9028C67.5799 163.293 68.1702 163.41 68.6738 163.643C69.1774 163.875 69.5604 164.205 69.8228 164.633C70.0851 165.06 70.2163 165.555 70.2163 166.118C70.2163 166.981 69.9222 167.675 69.334 168.2C68.75 168.725 67.9523 168.992 66.9409 169H63.4053V159.758H65.0112V163.293ZM65.0112 164.582V167.718H66.8965C67.4382 167.718 67.8592 167.572 68.1597 167.28C68.4644 166.984 68.6167 166.592 68.6167 166.105C68.6167 165.64 68.4686 165.272 68.1724 165.001C67.8761 164.73 67.4657 164.59 66.9409 164.582H65.0112Z" fill="black"/>
<path opacity="0.5" d="M107.602 159.758H109.208V169H107.602V162.417L103.545 169H101.939V159.758H103.545V166.347L107.602 159.758ZM122.611 164.62C122.611 165.526 122.454 166.321 122.141 167.007C121.828 167.688 121.379 168.213 120.795 168.581C120.216 168.945 119.547 169.127 118.79 169.127C118.083 169.127 117.45 168.966 116.892 168.645C116.333 168.323 115.887 167.862 115.552 167.261C115.218 166.66 115.021 165.959 114.962 165.16H113.807V169H112.207V159.758H113.807V163.916H114.943C114.968 163.065 115.144 162.314 115.47 161.662C115.796 161.006 116.244 160.505 116.815 160.158C117.391 159.806 118.045 159.631 118.777 159.631C119.53 159.631 120.197 159.813 120.776 160.177C121.36 160.536 121.811 161.057 122.128 161.738C122.446 162.415 122.607 163.205 122.611 164.106V164.62ZM121.005 164.138C121.005 163.114 120.81 162.329 120.421 161.783C120.036 161.237 119.488 160.964 118.777 160.964C118.083 160.964 117.539 161.237 117.146 161.783C116.756 162.324 116.557 163.092 116.549 164.087V164.62C116.549 165.636 116.746 166.421 117.139 166.975C117.537 167.529 118.087 167.807 118.79 167.807C119.5 167.807 120.046 167.536 120.427 166.994C120.812 166.452 121.005 165.661 121.005 164.62V164.138ZM132.377 169H130.777V164.893H126.645V169H125.039V159.758H126.645V163.604H130.777V159.758H132.377V169ZM136.862 163.293H138.753C139.431 163.293 140.021 163.41 140.524 163.643C141.028 163.875 141.411 164.205 141.673 164.633C141.936 165.06 142.067 165.555 142.067 166.118C142.067 166.981 141.773 167.675 141.185 168.2C140.601 168.725 139.803 168.992 138.792 169H135.256V159.758H136.862V163.293ZM136.862 164.582V167.718H138.747C139.289 167.718 139.71 167.572 140.01 167.28C140.315 166.984 140.467 166.592 140.467 166.105C140.467 165.64 140.319 165.272 140.023 165.001C139.727 164.73 139.316 164.59 138.792 164.582H136.862Z" fill="black"/>
<path opacity="0.5" d="M181.277 169H179.678V164.893H175.545V169H173.939V159.758H175.545V163.604H179.678V159.758H181.277V169ZM191.558 164.62C191.558 165.526 191.401 166.321 191.088 167.007C190.775 167.688 190.326 168.213 189.742 168.581C189.162 168.945 188.494 169.127 187.736 169.127C186.987 169.127 186.319 168.945 185.73 168.581C185.146 168.213 184.694 167.69 184.372 167.013C184.055 166.336 183.894 165.555 183.89 164.671V164.15C183.89 163.249 184.048 162.453 184.366 161.764C184.687 161.074 185.138 160.547 185.718 160.183C186.302 159.815 186.97 159.631 187.724 159.631C188.477 159.631 189.143 159.813 189.723 160.177C190.307 160.536 190.758 161.057 191.075 161.738C191.393 162.415 191.553 163.205 191.558 164.106V164.62ZM189.952 164.138C189.952 163.114 189.757 162.329 189.368 161.783C188.983 161.237 188.435 160.964 187.724 160.964C187.03 160.964 186.486 161.237 186.092 161.783C185.703 162.324 185.504 163.092 185.496 164.087V164.62C185.496 165.636 185.692 166.421 186.086 166.975C186.484 167.529 187.034 167.807 187.736 167.807C188.447 167.807 188.993 167.536 189.374 166.994C189.759 166.452 189.952 165.661 189.952 164.62V164.138ZM198.715 169V165.547H196.925L195.141 169H193.421L195.484 165.071C194.409 164.563 193.872 163.731 193.872 162.576C193.872 161.692 194.161 161.004 194.741 160.513C195.325 160.018 196.138 159.766 197.179 159.758H200.321V169H198.715ZM195.471 162.646C195.471 163.167 195.617 163.573 195.909 163.865C196.201 164.157 196.639 164.303 197.223 164.303H198.715V161.053H197.223C196.631 161.053 196.191 161.194 195.903 161.478C195.615 161.762 195.471 162.151 195.471 162.646ZM209.071 161.053H204.812V163.293H206.704C207.381 163.293 207.971 163.41 208.475 163.643C208.978 163.875 209.361 164.205 209.624 164.633C209.886 165.06 210.017 165.555 210.017 166.118C210.017 166.981 209.723 167.675 209.135 168.2C208.551 168.725 207.753 168.992 206.742 169H203.206V159.758H209.071V161.053ZM204.812 164.582V167.718H206.697C207.239 167.718 207.66 167.572 207.96 167.28C208.265 166.984 208.417 166.592 208.417 166.105C208.417 165.64 208.269 165.272 207.973 165.001C207.677 164.73 207.266 164.59 206.742 164.582H204.812ZM214.013 165.566V169H212.407V159.758H215.943C216.975 159.758 217.794 160.027 218.399 160.564C219.009 161.101 219.313 161.812 219.313 162.697C219.313 163.602 219.015 164.307 218.418 164.811C217.826 165.314 216.994 165.566 215.924 165.566H214.013ZM214.013 164.277H215.943C216.514 164.277 216.95 164.144 217.25 163.877C217.551 163.607 217.701 163.217 217.701 162.709C217.701 162.21 217.549 161.812 217.244 161.516C216.939 161.216 216.521 161.061 215.987 161.053H214.013V164.277ZM223.303 163.293H225.195C225.872 163.293 226.462 163.41 226.966 163.643C227.469 163.875 227.852 164.205 228.115 164.633C228.377 165.06 228.508 165.555 228.508 166.118C228.508 166.981 228.214 167.675 227.626 168.2C227.042 168.725 226.244 168.992 225.233 169H221.697V159.758H223.303V163.293ZM223.303 164.582V167.718H225.188C225.73 167.718 226.151 167.572 226.452 167.28C226.756 166.984 226.909 166.592 226.909 166.105C226.909 165.64 226.761 165.272 226.464 165.001C226.168 164.73 225.758 164.59 225.233 164.582H223.303Z" fill="black"/>
<path d="M108.359 74.7422H111.328V76.4766H108.359V79.8594H106.516V76.4766H103.531V74.7422H106.516V71.5781H108.359V74.7422ZM120.422 81H112.773V79.6953L116.562 75.5625C117.109 74.9531 117.497 74.4453 117.727 74.0391C117.961 73.6276 118.078 73.2161 118.078 72.8047C118.078 72.263 117.924 71.8255 117.617 71.4922C117.315 71.1589 116.906 70.9922 116.391 70.9922C115.776 70.9922 115.299 71.1797 114.961 71.5547C114.622 71.9297 114.453 72.4427 114.453 73.0938H112.555C112.555 72.401 112.711 71.7786 113.023 71.2266C113.341 70.6693 113.792 70.237 114.375 69.9297C114.964 69.6224 115.641 69.4688 116.406 69.4688C117.51 69.4688 118.38 69.7474 119.016 70.3047C119.656 70.8568 119.977 71.6224 119.977 72.6016C119.977 73.1693 119.815 73.7656 119.492 74.3906C119.174 75.0104 118.651 75.7161 117.922 76.5078L115.141 79.4844H120.422V81ZM129.281 76.2109C129.281 77.8464 128.974 79.0807 128.359 79.9141C127.75 80.7422 126.82 81.1562 125.57 81.1562C124.341 81.1562 123.414 80.7526 122.789 79.9453C122.169 79.1328 121.852 77.9323 121.836 76.3438V74.375C121.836 72.7396 122.141 71.513 122.75 70.6953C123.365 69.8776 124.299 69.4688 125.555 69.4688C126.799 69.4688 127.727 69.8672 128.336 70.6641C128.951 71.4609 129.266 72.6536 129.281 74.2422V76.2109ZM127.383 74.0859C127.383 73.0182 127.237 72.237 126.945 71.7422C126.654 71.2422 126.19 70.9922 125.555 70.9922C124.935 70.9922 124.479 71.2292 124.188 71.7031C123.896 72.1719 123.742 72.9062 123.727 73.9062V76.4844C123.727 77.5469 123.875 78.3385 124.172 78.8594C124.469 79.3802 124.935 79.6406 125.57 79.6406C126.18 79.6406 126.63 79.401 126.922 78.9219C127.214 78.4375 127.367 77.6823 127.383 76.6562V74.0859ZM130.883 71.8125C130.883 71.125 131.104 70.5625 131.547 70.125C131.99 69.6823 132.57 69.4609 133.289 69.4609C134.018 69.4609 134.602 69.6823 135.039 70.125C135.482 70.5625 135.703 71.138 135.703 71.8516V72.4141C135.703 73.0964 135.482 73.6562 135.039 74.0938C134.602 74.5312 134.023 74.75 133.305 74.75C132.602 74.75 132.021 74.5365 131.562 74.1094C131.109 73.6771 130.883 73.0964 130.883 72.3672V71.8125ZM132.211 72.4141C132.211 72.7734 132.31 73.0651 132.508 73.2891C132.711 73.5078 132.977 73.6172 133.305 73.6172C133.628 73.6172 133.888 73.5078 134.086 73.2891C134.284 73.0651 134.383 72.763 134.383 72.3828V71.8125C134.383 71.4531 134.281 71.1615 134.078 70.9375C133.88 70.7135 133.617 70.6016 133.289 70.6016C132.961 70.6016 132.698 70.7161 132.5 70.9453C132.307 71.1693 132.211 71.4661 132.211 71.8359V72.4141ZM136.352 78.2109C136.352 77.513 136.578 76.9479 137.031 76.5156C137.484 76.0833 138.062 75.8672 138.766 75.8672C139.474 75.8672 140.052 76.0833 140.5 76.5156C140.953 76.9479 141.18 77.5312 141.18 78.2656V78.8203C141.18 79.4974 140.961 80.0573 140.523 80.5C140.091 80.9375 139.51 81.1562 138.781 81.1562C138.052 81.1562 137.464 80.9401 137.016 80.5078C136.573 80.0703 136.352 79.4948 136.352 78.7812V78.2109ZM137.68 78.8203C137.68 79.1745 137.781 79.4661 137.984 79.6953C138.193 79.9193 138.458 80.0312 138.781 80.0312C139.115 80.0312 139.375 79.9245 139.562 79.7109C139.755 79.4922 139.852 79.1875 139.852 78.7969V78.2109C139.852 77.8464 139.75 77.5547 139.547 77.3359C139.344 77.1172 139.083 77.0078 138.766 77.0078C138.443 77.0078 138.18 77.1172 137.977 77.3359C137.779 77.5547 137.68 77.8568 137.68 78.2422V78.8203ZM133.695 80.1484L132.719 79.5859L138.273 70.6953L139.25 71.2578L133.695 80.1484Z" fill="white"/>
<path d="M187.359 50.7422H190.328V52.4766H187.359V55.8594H185.516V52.4766H182.531V50.7422H185.516V47.5781H187.359V50.7422ZM198.195 52.9453H199.609V54.4688H198.195V57H196.297V54.4688H191.383L191.328 53.3125L196.234 45.625H198.195V52.9453ZM193.32 52.9453H196.297V48.1953L196.156 48.4453L193.32 52.9453ZM208.281 52.2109C208.281 53.8464 207.974 55.0807 207.359 55.9141C206.75 56.7422 205.82 57.1562 204.57 57.1562C203.341 57.1562 202.414 56.7526 201.789 55.9453C201.169 55.1328 200.852 53.9323 200.836 52.3438V50.375C200.836 48.7396 201.141 47.513 201.75 46.6953C202.365 45.8776 203.299 45.4688 204.555 45.4688C205.799 45.4688 206.727 45.8672 207.336 46.6641C207.951 47.4609 208.266 48.6536 208.281 50.2422V52.2109ZM206.383 50.0859C206.383 49.0182 206.237 48.237 205.945 47.7422C205.654 47.2422 205.19 46.9922 204.555 46.9922C203.935 46.9922 203.479 47.2292 203.188 47.7031C202.896 48.1719 202.742 48.9062 202.727 49.9062V52.4844C202.727 53.5469 202.875 54.3385 203.172 54.8594C203.469 55.3802 203.935 55.6406 204.57 55.6406C205.18 55.6406 205.63 55.401 205.922 54.9219C206.214 54.4375 206.367 53.6823 206.383 52.6562V50.0859ZM209.883 47.8125C209.883 47.125 210.104 46.5625 210.547 46.125C210.99 45.6823 211.57 45.4609 212.289 45.4609C213.018 45.4609 213.602 45.6823 214.039 46.125C214.482 46.5625 214.703 47.138 214.703 47.8516V48.4141C214.703 49.0964 214.482 49.6562 214.039 50.0938C213.602 50.5312 213.023 50.75 212.305 50.75C211.602 50.75 211.021 50.5365 210.562 50.1094C210.109 49.6771 209.883 49.0964 209.883 48.3672V47.8125ZM211.211 48.4141C211.211 48.7734 211.31 49.0651 211.508 49.2891C211.711 49.5078 211.977 49.6172 212.305 49.6172C212.628 49.6172 212.888 49.5078 213.086 49.2891C213.284 49.0651 213.383 48.763 213.383 48.3828V47.8125C213.383 47.4531 213.281 47.1615 213.078 46.9375C212.88 46.7135 212.617 46.6016 212.289 46.6016C211.961 46.6016 211.698 46.7161 211.5 46.9453C211.307 47.1693 211.211 47.4661 211.211 47.8359V48.4141ZM215.352 54.2109C215.352 53.513 215.578 52.9479 216.031 52.5156C216.484 52.0833 217.062 51.8672 217.766 51.8672C218.474 51.8672 219.052 52.0833 219.5 52.5156C219.953 52.9479 220.18 53.5312 220.18 54.2656V54.8203C220.18 55.4974 219.961 56.0573 219.523 56.5C219.091 56.9375 218.51 57.1562 217.781 57.1562C217.052 57.1562 216.464 56.9401 216.016 56.5078C215.573 56.0703 215.352 55.4948 215.352 54.7812V54.2109ZM216.68 54.8203C216.68 55.1745 216.781 55.4661 216.984 55.6953C217.193 55.9193 217.458 56.0312 217.781 56.0312C218.115 56.0312 218.375 55.9245 218.562 55.7109C218.755 55.4922 218.852 55.1875 218.852 54.7969V54.2109C218.852 53.8464 218.75 53.5547 218.547 53.3359C218.344 53.1172 218.083 53.0078 217.766 53.0078C217.443 53.0078 217.18 53.1172 216.977 53.3359C216.779 53.5547 216.68 53.8568 216.68 54.2422V54.8203ZM212.695 56.1484L211.719 55.5859L217.273 46.6953L218.25 47.2578L212.695 56.1484Z" fill="white"/>
</g>
<defs>
<filter id="filter0_d_0_634" x="1" y="84" width="85" height="67" filterUnits="userSpaceOnUse" color-interpolation-filters="sRGB">
<feFlood flood-opacity="0" result="BackgroundImageFix"/>
<feColorMatrix in="SourceAlpha" type="matrix" values="0 0 0 0 0 0 0 0 0 0 0 0 0 0 0 0 0 0 127 0" result="hardAlpha"/>
<feOffset dy="-4"/>
<feGaussianBlur stdDeviation="5.5"/>
<feColorMatrix type="matrix" values="0 0 0 0 0.101961 0 0 0 0 0.266667 0 0 0 0 0.443137 0 0 0 0.100005 0"/>
<feBlend mode="normal" in2="BackgroundImageFix" result="effect1_dropShadow_0_634"/>
<feBlend mode="normal" in="SourceGraphic" in2="effect1_dropShadow_0_634" result="shape"/>
</filter>
<filter id="filter1_d_0_634" x="80" y="38" width="85" height="113" filterUnits="userSpaceOnUse" color-interpolation-filters="sRGB">
<feFlood flood-opacity="0" result="BackgroundImageFix"/>
<feColorMatrix in="SourceAlpha" type="matrix" values="0 0 0 0 0 0 0 0 0 0 0 0 0 0 0 0 0 0 127 0" result="hardAlpha"/>
<feOffset dy="-4"/>
<feGaussianBlur stdDeviation="5.5"/>
<feColorMatrix type="matrix" values="0 0 0 0 0.101961 0 0 0 0 0.266667 0 0 0 0 0.443137 0 0 0 0.100005 0"/>
<feBlend mode="normal" in2="BackgroundImageFix" result="effect1_dropShadow_0_634"/>
<feBlend mode="normal" in="SourceGraphic" in2="effect1_dropShadow_0_634" result="shape"/>
</filter>
<filter id="filter2_d_0_634" x="57" y="41" width="131" height="114" filterUnits="userSpaceOnUse" color-interpolation-filters="sRGB">
<feFlood flood-opacity="0" result="BackgroundImageFix"/>
<feColorMatrix in="SourceAlpha" type="matrix" values="0 0 0 0 0 0 0 0 0 0 0 0 0 0 0 0 0 0 127 0" result="hardAlpha"/>
<feOffset dy="22"/>
<feGaussianBlur stdDeviation="17"/>
<feColorMatrix type="matrix" values="0 0 0 0 0.235294 0 0 0 0 0.784314 0 0 0 0 0.682353 0 0 0 0.5 0"/>
<feBlend mode="normal" in2="BackgroundImageFix" result="effect1_dropShadow_0_634"/>
<feBlend mode="normal" in="SourceGraphic" in2="effect1_dropShadow_0_634" result="shape"/>
</filter>
<filter id="filter3_d_0_634" x="159" y="-15" width="85" height="166" filterUnits="userSpaceOnUse" color-interpolation-filters="sRGB">
<feFlood flood-opacity="0" result="BackgroundImageFix"/>
<feColorMatrix in="SourceAlpha" type="matrix" values="0 0 0 0 0 0 0 0 0 0 0 0 0 0 0 0 0 0 127 0" result="hardAlpha"/>
<feOffset dy="-4"/>
<feGaussianBlur stdDeviation="5.5"/>
<feColorMatrix type="matrix" values="0 0 0 0 0.101961 0 0 0 0 0.266667 0 0 0 0 0.443137 0 0 0 0.100005 0"/>
<feBlend mode="normal" in2="BackgroundImageFix" result="effect1_dropShadow_0_634"/>
<feBlend mode="normal" in="SourceGraphic" in2="effect1_dropShadow_0_634" result="shape"/>
</filter>
<filter id="filter4_d_0_634" x="136" y="-12" width="131" height="167" filterUnits="userSpaceOnUse" color-interpolation-filters="sRGB">
<feFlood flood-opacity="0" result="BackgroundImageFix"/>
<feColorMatrix in="SourceAlpha" type="matrix" values="0 0 0 0 0 0 0 0 0 0 0 0 0 0 0 0 0 0 127 0" result="hardAlpha"/>
<feOffset dy="22"/>
<feGaussianBlur stdDeviation="17"/>
<feColorMatrix type="matrix" values="0 0 0 0 0.235294 0 0 0 0 0.784314 0 0 0 0 0.682353 0 0 0 0.5 0"/>
<feBlend mode="normal" in2="BackgroundImageFix" result="effect1_dropShadow_0_634"/>
<feBlend mode="normal" in="SourceGraphic" in2="effect1_dropShadow_0_634" result="shape"/>
</filter>
<clipPath id="clip0_0_634">
<rect width="245" height="284" fill="white"/>
</clipPath>
<clipPath id="clip1_0_634">
<rect width="238" height="90" fill="white" transform="translate(3 194)"/>
</clipPath>
</defs>
</svg>
